<svg xmlns="http://www.w3.org/2000/svg" viewBox="0 0 5720 1200" role="img" aria-label="Net worth (gold) at 10:00 by match start time: Allied minus enemy delta"><style>text{font-family:system-ui,-apple-system,"Segoe UI",sans-serif;fill:#f8fafc}.axis{stroke:#94a3b8;stroke-width:1}.grid{stroke:#334155;stroke-width:1}.hourgrid{stroke:#1e293b;stroke-width:1}.whisker{stroke:#f8fafc}.missing{fill:#64748b;font-size:27px}.low-sample{stroke-dasharray:7 5}.low-note{fill:#cbd5e1;font-size:33px;font-weight:600}</style><defs><pattern id="low-sample-0" width="9" height="9" patternUnits="userSpaceOnUse"><rect width="9" height="9" fill="#c4b5fd" fill-opacity="0.20"/><circle cx="2.25" cy="2.25" r="1.8" fill="#c4b5fd"/></pattern></defs><rect x="0" y="0" width="5720" height="1200" fill="#0b1220"/><text x="200" y="78" font-size="75" font-weight="700">Net worth (gold) at 10:00 by match start time: Allied minus enemy delta</text><text x="200" y="138" font-size="39" fill="#cbd5e1">Showing 32 local-time half-hour buckets. Each match splits linearly across adjacent bucket centres.</text><text class="low-note" x="200" y="190">Dotted and faded violin = effective N below 3</text><line class="grid" x1="200" x2="5640" y1="800.18" y2="800.18"/><text x="180" y="811.18" font-size="33" text-anchor="end">-2,000</text><line class="grid" x1="200" x2="5640" y1="570.00" y2="570.00"/><text x="180" y="581.00" font-size="33" text-anchor="end">0</text><line class="grid" x1="200" x2="5640" y1="339.82" y2="339.82"/><text x="180" y="350.82" font-size="33" text-anchor="end">2,000</text><line class="axis" x1="200" x2="5640" y1="570.00" y2="570.00"/><line class="hourgrid" x1="200.00" x2="200.00" y1="210" y2="930"/><text x="285.00" y="1023" font-size="30" text-anchor="middle">02:30</text><line class="grid" x1="370.00" x2="370.00" y1="210" y2="930"/><text x="455.00" y="985" font-size="30" text-anchor="middle">03:00</text><line class="hourgrid" x1="540.00" x2="540.00" y1="210" y2="930"/><text x="625.00" y="1023" font-size="30" text-anchor="middle">03:30</text><line class="grid" x1="710.00" x2="710.00" y1="210" y2="930"/><text x="795.00" y="985" font-size="30" text-anchor="middle">04:00</text><line class="hourgrid" x1="880.00" x2="880.00" y1="210" y2="930"/><text x="965.00" y="1023" font-size="30" text-anchor="middle">04:30</text><line class="grid" x1="1050.00" x2="1050.00" y1="210" y2="930"/><text x="1135.00" y="985" font-size="30" text-anchor="middle">05:00</text><line class="hourgrid" x1="1220.00" x2="1220.00" y1="210" y2="930"/><text x="1305.00" y="1023" font-size="30" text-anchor="middle">05:30</text><line class="grid" x1="1390.00" x2="1390.00" y1="210" y2="930"/><text x="1475.00" y="985" font-size="30" text-anchor="middle">06:00</text><line class="hourgrid" x1="1560.00" x2="1560.00" y1="210" y2="930"/><text x="1645.00" y="1023" font-size="30" text-anchor="middle">06:30</text><line class="grid" x1="1730.00" x2="1730.00" y1="210" y2="930"/><text x="1815.00" y="985" font-size="30" text-anchor="middle">07:00</text><line class="hourgrid" x1="1900.00" x2="1900.00" y1="210" y2="930"/><text x="1985.00" y="1023" font-size="30" text-anchor="middle">07:30</text><line class="grid" x1="2070.00" x2="2070.00" y1="210" y2="930"/><text x="2155.00" y="985" font-size="30" text-anchor="middle">08:00</text><line class="hourgrid" x1="2240.00" x2="2240.00" y1="210" y2="930"/><text x="2325.00" y="1023" font-size="30" text-anchor="middle">08:30</text><line class="grid" x1="2410.00" x2="2410.00" y1="210" y2="930"/><text x="2495.00" y="985" font-size="30" text-anchor="middle">09:00</text><line class="hourgrid" x1="2580.00" x2="2580.00" y1="210" y2="930"/><text x="2665.00" y="1023" font-size="30" text-anchor="middle">09:30</text><line class="grid" x1="2750.00" x2="2750.00" y1="210" y2="930"/><text x="2835.00" y="985" font-size="30" text-anchor="middle">10:00</text><line class="hourgrid" x1="2920.00" x2="2920.00" y1="210" y2="930"/><text x="3005.00" y="1023" font-size="30" text-anchor="middle">10:30</text><line class="grid" x1="3090.00" x2="3090.00" y1="210" y2="930"/><text x="3175.00" y="985" font-size="30" text-anchor="middle">11:00</text><line class="hourgrid" x1="3260.00" x2="3260.00" y1="210" y2="930"/><text x="3345.00" y="1023" font-size="30" text-anchor="middle">11:30</text><line class="grid" x1="3430.00" x2="3430.00" y1="210" y2="930"/><text x="3515.00" y="985" font-size="30" text-anchor="middle">12:00</text><line class="hourgrid" x1="3600.00" x2="3600.00" y1="210" y2="930"/><text x="3685.00" y="1023" font-size="30" text-anchor="middle">12:30</text><line class="grid" x1="3770.00" x2="3770.00" y1="210" y2="930"/><text x="3855.00" y="985" font-size="30" text-anchor="middle">13:00</text><line class="hourgrid" x1="3940.00" x2="3940.00" y1="210" y2="930"/><text x="4025.00" y="1023" font-size="30" text-anchor="middle">13:30</text><line class="grid" x1="4110.00" x2="4110.00" y1="210" y2="930"/><text x="4195.00" y="985" font-size="30" text-anchor="middle">14:00</text><line class="hourgrid" x1="4280.00" x2="4280.00" y1="210" y2="930"/><text x="4365.00" y="1023" font-size="30" text-anchor="middle">14:30</text><line class="grid" x1="4450.00" x2="4450.00" y1="210" y2="930"/><text x="4535.00" y="985" font-size="30" text-anchor="middle">15:00</text><line class="hourgrid" x1="4620.00" x2="4620.00" y1="210" y2="930"/><text x="4705.00" y="1023" font-size="30" text-anchor="middle">15:30</text><line class="grid" x1="4790.00" x2="4790.00" y1="210" y2="930"/><text x="4875.00" y="985" font-size="30" text-anchor="middle">16:00</text><line class="hourgrid" x1="4960.00" x2="4960.00" y1="210" y2="930"/><text x="5045.00" y="1023" font-size="30" text-anchor="middle">16:30</text><line class="grid" x1="5130.00" x2="5130.00" y1="210" y2="930"/><text x="5215.00" y="985" font-size="30" text-anchor="middle">17:00</text><line class="hourgrid" x1="5300.00" x2="5300.00" y1="210" y2="930"/><text x="5385.00" y="1023" font-size="30" text-anchor="middle">17:30</text><line class="grid" x1="5470.00" x2="5470.00" y1="210" y2="930"/><text x="5555.00" y="985" font-size="30" text-anchor="middle">18:00</text><path class="low-sample" d="M285.00,930.00 L285.00,919.86 L285.00,909.72 L285.00,899.58 L285.00,889.44 L285.00,879.30 L285.00,869.15 L285.00,859.01 L285.00,848.87 L285.00,838.73 L285.00,828.59 L285.00,818.45 L285.00,808.31 L285.00,798.17 L285.00,788.03 L285.00,777.89 L285.00,767.75 L285.00,757.61 L284.99,747.46 L284.98,737.32 L284.96,727.18 L284.91,717.04 L284.79,706.90 L284.57,696.76 L284.14,686.62 L283.40,676.48 L282.18,666.34 L280.30,656.20 L277.60,646.06 L273.99,635.92 L269.53,625.77 L264.45,615.63 L259.20,605.49 L254.36,595.35 L250.54,585.21 L248.22,575.07 L247.60,564.93 L248.53,554.79 L250.51,544.65 L252.84,534.51 L254.76,524.37 L255.73,514.23 L255.51,504.08 L254.24,493.94 L252.43,483.80 L250.74,473.66 L249.86,463.52 L250.29,453.38 L252.23,443.24 L255.55,433.10 L259.88,422.96 L264.67,412.82 L269.42,402.68 L273.68,392.54 L277.22,382.39 L279.93,372.25 L281.87,362.11 L283.17,351.97 L283.99,341.83 L284.47,331.69 L284.74,321.55 L284.88,311.41 L284.95,301.27 L284.98,291.13 L284.99,280.99 L285.00,270.85 L285.00,260.70 L285.00,250.56 L285.00,240.42 L285.00,230.28 L285.00,220.14 L285.00,210.00 L285.00,210.00 L285.00,220.14 L285.00,230.28 L285.00,240.42 L285.00,250.56 L285.00,260.70 L285.00,270.85 L285.01,280.99 L285.02,291.13 L285.05,301.27 L285.12,311.41 L285.26,321.55 L285.53,331.69 L286.01,341.83 L286.83,351.97 L288.13,362.11 L290.07,372.25 L292.78,382.39 L296.32,392.54 L300.58,402.68 L305.33,412.82 L310.12,422.96 L314.45,433.10 L317.77,443.24 L319.71,453.38 L320.14,463.52 L319.26,473.66 L317.57,483.80 L315.76,493.94 L314.49,504.08 L314.27,514.23 L315.24,524.37 L317.16,534.51 L319.49,544.65 L321.47,554.79 L322.40,564.93 L321.78,575.07 L319.46,585.21 L315.64,595.35 L310.80,605.49 L305.55,615.63 L300.47,625.77 L296.01,635.92 L292.40,646.06 L289.70,656.20 L287.82,666.34 L286.60,676.48 L285.86,686.62 L285.43,696.76 L285.21,706.90 L285.09,717.04 L285.04,727.18 L285.02,737.32 L285.01,747.46 L285.00,757.61 L285.00,767.75 L285.00,777.89 L285.00,788.03 L285.00,798.17 L285.00,808.31 L285.00,818.45 L285.00,828.59 L285.00,838.73 L285.00,848.87 L285.00,859.01 L285.00,869.15 L285.00,879.30 L285.00,889.44 L285.00,899.58 L285.00,909.72 L285.00,919.86 L285.00,930.00 Z" fill="url(#low-sample-0)" fill-opacity="0.70" stroke="#c4b5fd" stroke-width="2.4" data-effective-n="2.579"><title>02:30 Allied P1 + P5 minus Enemy P3 + P4; contributors 3; effective N 2.58</title></path><line class="whisker" x1="285.00" x2="285.00" y1="570.35" y2="446.05" stroke-width="0.8"/><line class="whisker" x1="261.81" x2="308.19" y1="570.35" y2="570.35" stroke-width="0.8"/><line class="whisker" x1="261.81" x2="308.19" y1="446.05" y2="446.05" stroke-width="0.8"/><line x1="285.00" x2="285.00" y1="570.35" y2="446.58" stroke="#c4b5fd" stroke-width="2.3"/><line x1="285.00" x2="285.00" y1="570.35" y2="457.17" stroke="#c4b5fd" stroke-width="5" stroke-linecap="round"/><line x1="261.81" x2="308.19" y1="506.11" y2="506.11" stroke="#f8fafc" stroke-width="2.2"/><path d="M455.00,930.00 L455.00,919.86 L455.00,909.72 L455.00,899.58 L455.00,889.44 L455.00,879.30 L455.00,869.15 L455.00,859.01 L455.00,848.87 L455.00,838.73 L455.00,828.59 L455.00,818.45 L455.00,808.31 L455.00,798.17 L455.00,788.03 L455.00,777.89 L455.00,767.75 L455.00,757.61 L455.00,747.46 L455.00,737.32 L455.00,727.18 L454.99,717.04 L454.98,706.90 L454.96,696.76 L454.91,686.62 L454.82,676.48 L454.65,666.34 L454.37,656.20 L453.94,646.06 L453.33,635.92 L452.53,625.77 L451.57,615.63 L450.53,605.49 L449.53,595.35 L448.67,585.21 L448.02,575.07 L447.56,564.93 L447.13,554.79 L446.46,544.65 L445.20,534.51 L443.04,524.37 L439.77,514.23 L435.46,504.08 L430.46,493.94 L425.41,483.80 L421.10,473.66 L418.31,463.52 L417.60,453.38 L419.14,443.24 L422.67,433.10 L427.61,422.96 L433.18,412.82 L438.65,402.68 L443.44,392.54 L447.23,382.39 L449.91,372.25 L451.58,362.11 L452.39,351.97 L452.54,341.83 L452.25,331.69 L451.70,321.55 L451.07,311.41 L450.52,301.27 L450.18,291.13 L450.13,280.99 L450.39,270.85 L450.91,260.70 L451.60,250.56 L452.35,240.42 L453.07,230.28 L453.68,220.14 L454.16,210.00 L455.84,210.00 L456.32,220.14 L456.93,230.28 L457.65,240.42 L458.40,250.56 L459.09,260.70 L459.61,270.85 L459.87,280.99 L459.82,291.13 L459.48,301.27 L458.93,311.41 L458.30,321.55 L457.75,331.69 L457.46,341.83 L457.61,351.97 L458.42,362.11 L460.09,372.25 L462.77,382.39 L466.56,392.54 L471.35,402.68 L476.82,412.82 L482.39,422.96 L487.33,433.10 L490.86,443.24 L492.40,453.38 L491.69,463.52 L488.90,473.66 L484.59,483.80 L479.54,493.94 L474.54,504.08 L470.23,514.23 L466.96,524.37 L464.80,534.51 L463.54,544.65 L462.87,554.79 L462.44,564.93 L461.98,575.07 L461.33,585.21 L460.47,595.35 L459.47,605.49 L458.43,615.63 L457.47,625.77 L456.67,635.92 L456.06,646.06 L455.63,656.20 L455.35,666.34 L455.18,676.48 L455.09,686.62 L455.04,696.76 L455.02,706.90 L455.01,717.04 L455.00,727.18 L455.00,737.32 L455.00,747.46 L455.00,757.61 L455.00,767.75 L455.00,777.89 L455.00,788.03 L455.00,798.17 L455.00,808.31 L455.00,818.45 L455.00,828.59 L455.00,838.73 L455.00,848.87 L455.00,859.01 L455.00,869.15 L455.00,879.30 L455.00,889.44 L455.00,899.58 L455.00,909.72 L455.00,919.86 L455.00,930.00 Z" fill="#c4b5fd" fill-opacity="0.18" stroke="#c4b5fd" stroke-width="1.1" data-effective-n="3.091"><title>03:00 Allied P1 + P5 minus Enemy P3 + P4; contributors 4; effective N 3.09</title></path><line class="whisker" x1="455.00" x2="455.00" y1="570.35" y2="284.24" stroke-width="0.8"/><line class="whisker" x1="431.81" x2="478.19" y1="570.35" y2="570.35" stroke-width="0.8"/><line class="whisker" x1="431.81" x2="478.19" y1="284.24" y2="284.24" stroke-width="0.8"/><line x1="455.00" x2="455.00" y1="556.59" y2="319.09" stroke="#c4b5fd" stroke-width="2.3"/><line x1="455.00" x2="455.00" y1="495.71" y2="421.82" stroke="#c4b5fd" stroke-width="5" stroke-linecap="round"/><line x1="431.81" x2="478.19" y1="455.68" y2="455.68" stroke="#f8fafc" stroke-width="2.2"/><line class="whisker" x1="625.00" x2="625.00" y1="284.24" y2="284.24" stroke-width="0.8"/><line class="whisker" x1="601.81" x2="648.19" y1="284.24" y2="284.24" stroke-width="0.8"/><line class="whisker" x1="601.81" x2="648.19" y1="284.24" y2="284.24" stroke-width="0.8"/><line x1="625.00" x2="625.00" y1="284.24" y2="284.24" stroke="#c4b5fd" stroke-width="2.3"/><line x1="625.00" x2="625.00" y1="284.24" y2="284.24" stroke="#c4b5fd" stroke-width="5" stroke-linecap="round"/><line x1="601.81" x2="648.19" y1="284.24" y2="284.24" stroke="#f8fafc" stroke-width="2.2"/><path class="low-sample" d="M795.00,930.00 L795.00,919.86 L795.00,909.72 L795.00,899.58 L795.00,889.44 L795.00,879.30 L795.00,869.15 L795.00,859.01 L795.00,848.87 L795.00,838.73 L795.00,828.59 L795.00,818.45 L795.00,808.31 L795.00,798.17 L795.00,788.03 L795.00,777.89 L795.00,767.75 L795.00,757.61 L795.00,747.46 L795.00,737.32 L795.00,727.18 L795.00,717.04 L795.00,706.90 L795.00,696.76 L795.00,686.62 L795.00,676.48 L795.00,666.34 L795.00,656.20 L795.00,646.06 L794.99,635.92 L794.99,625.77 L794.97,615.63 L794.93,605.49 L794.84,595.35 L794.68,585.21 L794.37,575.07 L793.84,564.93 L792.96,554.79 L791.58,544.65 L789.57,534.51 L786.80,524.37 L783.22,514.23 L778.89,504.08 L774.05,493.94 L769.06,483.80 L764.42,473.66 L760.67,463.52 L758.29,453.38 L757.60,443.24 L758.69,433.10 L761.40,422.96 L765.36,412.82 L770.07,402.68 L775.00,392.54 L779.67,382.39 L783.75,372.25 L787.03,362.11 L789.44,351.97 L791.02,341.83 L791.85,331.69 L792.05,321.55 L791.76,311.41 L791.10,301.27 L790.23,291.13 L789.30,280.99 L788.45,270.85 L787.83,260.70 L787.55,250.56 L787.64,240.42 L788.11,230.28 L788.88,220.14 L789.84,210.00 L800.16,210.00 L801.12,220.14 L801.89,230.28 L802.36,240.42 L802.45,250.56 L802.17,260.70 L801.55,270.85 L800.70,280.99 L799.77,291.13 L798.90,301.27 L798.24,311.41 L797.95,321.55 L798.15,331.69 L798.98,341.83 L800.56,351.97 L802.97,362.11 L806.25,372.25 L810.33,382.39 L815.00,392.54 L819.93,402.68 L824.64,412.82 L828.60,422.96 L831.31,433.10 L832.40,443.24 L831.71,453.38 L829.33,463.52 L825.58,473.66 L820.94,483.80 L815.95,493.94 L811.11,504.08 L806.78,514.23 L803.20,524.37 L800.43,534.51 L798.42,544.65 L797.04,554.79 L796.16,564.93 L795.63,575.07 L795.32,585.21 L795.16,595.35 L795.07,605.49 L795.03,615.63 L795.01,625.77 L795.01,635.92 L795.00,646.06 L795.00,656.20 L795.00,666.34 L795.00,676.48 L795.00,686.62 L795.00,696.76 L795.00,706.90 L795.00,717.04 L795.00,727.18 L795.00,737.32 L795.00,747.46 L795.00,757.61 L795.00,767.75 L795.00,777.89 L795.00,788.03 L795.00,798.17 L795.00,808.31 L795.00,818.45 L795.00,828.59 L795.00,838.73 L795.00,848.87 L795.00,859.01 L795.00,869.15 L795.00,879.30 L795.00,889.44 L795.00,899.58 L795.00,909.72 L795.00,919.86 L795.00,930.00 Z" fill="url(#low-sample-0)" fill-opacity="0.70" stroke="#c4b5fd" stroke-width="2.4" data-effective-n="2.504"><title>04:00 Allied P1 + P5 minus Enemy P3 + P4; contributors 3; effective N 2.50</title></path><line class="whisker" x1="795.00" x2="795.00" y1="454.34" y2="247.87" stroke-width="0.8"/><line class="whisker" x1="771.81" x2="818.19" y1="454.34" y2="454.34" stroke-width="0.8"/><line class="whisker" x1="771.81" x2="818.19" y1="247.87" y2="247.87" stroke-width="0.8"/><line x1="795.00" x2="795.00" y1="454.34" y2="262.79" stroke="#c4b5fd" stroke-width="2.3"/><line x1="795.00" x2="795.00" y1="454.34" y2="375.44" stroke="#c4b5fd" stroke-width="5" stroke-linecap="round"/><line x1="771.81" x2="818.19" y1="438.89" y2="438.89" stroke="#f8fafc" stroke-width="2.2"/><path class="low-sample" d="M965.00,930.00 L965.00,919.86 L965.00,909.72 L965.00,899.58 L965.00,889.44 L965.00,879.30 L965.00,869.15 L965.00,859.01 L965.00,848.87 L965.00,838.73 L965.00,828.59 L965.00,818.45 L965.00,808.31 L965.00,798.17 L965.00,788.03 L965.00,777.89 L965.00,767.75 L965.00,757.61 L965.00,747.46 L965.00,737.32 L965.00,727.18 L965.00,717.04 L964.99,706.90 L964.99,696.76 L964.98,686.62 L964.97,676.48 L964.94,666.34 L964.91,656.20 L964.85,646.06 L964.78,635.92 L964.66,625.77 L964.50,615.63 L964.29,605.49 L964.00,595.35 L963.63,585.21 L963.17,575.07 L962.60,564.93 L961.93,554.79 L961.15,544.65 L960.28,534.51 L959.34,524.37 L958.36,514.23 L957.37,504.08 L956.41,493.94 L955.52,483.80 L954.72,473.66 L954.04,463.52 L953.50,453.38 L953.08,443.24 L952.77,433.10 L952.52,422.96 L952.29,412.82 L952.00,402.68 L951.59,392.54 L950.97,382.39 L950.09,372.25 L948.88,362.11 L947.31,351.97 L945.39,341.83 L943.14,331.69 L940.64,321.55 L937.98,311.41 L935.33,301.27 L932.82,291.13 L930.65,280.99 L928.97,270.85 L927.92,260.70 L927.60,250.56 L928.06,240.42 L929.30,230.28 L931.25,220.14 L933.80,210.00 L996.20,210.00 L998.75,220.14 L1000.70,230.28 L1001.94,240.42 L1002.40,250.56 L1002.08,260.70 L1001.03,270.85 L999.35,280.99 L997.18,291.13 L994.67,301.27 L992.02,311.41 L989.36,321.55 L986.86,331.69 L984.61,341.83 L982.69,351.97 L981.12,362.11 L979.91,372.25 L979.03,382.39 L978.41,392.54 L978.00,402.68 L977.71,412.82 L977.48,422.96 L977.23,433.10 L976.92,443.24 L976.50,453.38 L975.96,463.52 L975.28,473.66 L974.48,483.80 L973.59,493.94 L972.63,504.08 L971.64,514.23 L970.66,524.37 L969.72,534.51 L968.85,544.65 L968.07,554.79 L967.40,564.93 L966.83,575.07 L966.37,585.21 L966.00,595.35 L965.71,605.49 L965.50,615.63 L965.34,625.77 L965.22,635.92 L965.15,646.06 L965.09,656.20 L965.06,666.34 L965.03,676.48 L965.02,686.62 L965.01,696.76 L965.01,706.90 L965.00,717.04 L965.00,727.18 L965.00,737.32 L965.00,747.46 L965.00,757.61 L965.00,767.75 L965.00,777.89 L965.00,788.03 L965.00,798.17 L965.00,808.31 L965.00,818.45 L965.00,828.59 L965.00,838.73 L965.00,848.87 L965.00,859.01 L965.00,869.15 L965.00,879.30 L965.00,889.44 L965.00,899.58 L965.00,909.72 L965.00,919.86 L965.00,930.00 Z" fill="url(#low-sample-0)" fill-opacity="0.70" stroke="#c4b5fd" stroke-width="2.4" data-effective-n="1.755"><title>04:30 Allied P1 + P5 minus Enemy P3 + P4; contributors 4; effective N 1.76</title></path><line class="whisker" x1="965.00" x2="965.00" y1="454.34" y2="247.87" stroke-width="0.8"/><line class="whisker" x1="941.81" x2="988.19" y1="454.34" y2="454.34" stroke-width="0.8"/><line class="whisker" x1="941.81" x2="988.19" y1="247.87" y2="247.87" stroke-width="0.8"/><line x1="965.00" x2="965.00" y1="452.54" y2="247.87" stroke="#c4b5fd" stroke-width="2.3"/><line x1="965.00" x2="965.00" y1="359.08" y2="247.87" stroke="#c4b5fd" stroke-width="5" stroke-linecap="round"/><line x1="941.81" x2="988.19" y1="287.21" y2="287.21" stroke="#f8fafc" stroke-width="2.2"/><path class="low-sample" d="M1134.94,930.00 L1134.92,919.86 L1134.88,909.72 L1134.83,899.58 L1134.77,889.44 L1134.69,879.30 L1134.58,869.15 L1134.45,859.01 L1134.27,848.87 L1134.05,838.73 L1133.79,828.59 L1133.46,818.45 L1133.08,808.31 L1132.62,798.17 L1132.08,788.03 L1131.47,777.89 L1130.79,767.75 L1130.02,757.61 L1129.19,747.46 L1128.30,737.32 L1127.35,727.18 L1126.38,717.04 L1125.39,706.90 L1124.41,696.76 L1123.46,686.62 L1122.56,676.48 L1121.74,666.34 L1121.01,656.20 L1120.39,646.06 L1119.88,635.92 L1119.49,625.77 L1119.22,615.63 L1119.04,605.49 L1118.94,595.35 L1118.90,585.21 L1118.88,575.07 L1118.83,564.93 L1118.72,554.79 L1118.51,544.65 L1118.17,534.51 L1117.65,524.37 L1116.93,514.23 L1116.00,504.08 L1114.85,493.94 L1113.48,483.80 L1111.93,473.66 L1110.23,463.52 L1108.42,453.38 L1106.55,443.24 L1104.70,433.10 L1102.93,422.96 L1101.31,412.82 L1099.92,402.68 L1098.80,392.54 L1098.02,382.39 L1097.61,372.25 L1097.60,362.11 L1098.00,351.97 L1098.80,341.83 L1099.99,331.69 L1101.52,321.55 L1103.36,311.41 L1105.43,301.27 L1107.69,291.13 L1110.08,280.99 L1112.51,270.85 L1114.95,260.70 L1117.33,250.56 L1119.61,240.42 L1121.75,230.28 L1123.73,220.14 L1125.53,210.00 L1144.47,210.00 L1146.27,220.14 L1148.25,230.28 L1150.39,240.42 L1152.67,250.56 L1155.05,260.70 L1157.49,270.85 L1159.92,280.99 L1162.31,291.13 L1164.57,301.27 L1166.64,311.41 L1168.48,321.55 L1170.01,331.69 L1171.20,341.83 L1172.00,351.97 L1172.40,362.11 L1172.39,372.25 L1171.98,382.39 L1171.20,392.54 L1170.08,402.68 L1168.69,412.82 L1167.07,422.96 L1165.30,433.10 L1163.45,443.24 L1161.58,453.38 L1159.77,463.52 L1158.07,473.66 L1156.52,483.80 L1155.15,493.94 L1154.00,504.08 L1153.07,514.23 L1152.35,524.37 L1151.83,534.51 L1151.49,544.65 L1151.28,554.79 L1151.17,564.93 L1151.12,575.07 L1151.10,585.21 L1151.06,595.35 L1150.96,605.49 L1150.78,615.63 L1150.51,625.77 L1150.12,635.92 L1149.61,646.06 L1148.99,656.20 L1148.26,666.34 L1147.44,676.48 L1146.54,686.62 L1145.59,696.76 L1144.61,706.90 L1143.62,717.04 L1142.65,727.18 L1141.70,737.32 L1140.81,747.46 L1139.98,757.61 L1139.21,767.75 L1138.53,777.89 L1137.92,788.03 L1137.38,798.17 L1136.92,808.31 L1136.54,818.45 L1136.21,828.59 L1135.95,838.73 L1135.73,848.87 L1135.55,859.01 L1135.42,869.15 L1135.31,879.30 L1135.23,889.44 L1135.17,899.58 L1135.12,909.72 L1135.08,919.86 L1135.06,930.00 Z" fill="url(#low-sample-0)" fill-opacity="0.70" stroke="#c4b5fd" stroke-width="2.4" data-effective-n="1.689"><title>05:00 Allied P1 + P5 minus Enemy P3 + P4; contributors 2; effective N 1.69</title></path><line class="whisker" x1="1135.00" x2="1135.00" y1="619.60" y2="364.34" stroke-width="0.8"/><line class="whisker" x1="1111.81" x2="1158.19" y1="619.60" y2="619.60" stroke-width="0.8"/><line class="whisker" x1="1111.81" x2="1158.19" y1="364.34" y2="364.34" stroke-width="0.8"/><line x1="1135.00" x2="1135.00" y1="619.60" y2="364.34" stroke="#c4b5fd" stroke-width="2.3"/><line x1="1135.00" x2="1135.00" y1="564.80" y2="364.34" stroke="#c4b5fd" stroke-width="5" stroke-linecap="round"/><line x1="1111.81" x2="1158.19" y1="437.17" y2="437.17" stroke="#f8fafc" stroke-width="2.2"/><line class="whisker" x1="1305.00" x2="1305.00" y1="619.60" y2="619.60" stroke-width="0.8"/><line class="whisker" x1="1281.81" x2="1328.19" y1="619.60" y2="619.60" stroke-width="0.8"/><line class="whisker" x1="1281.81" x2="1328.19" y1="619.60" y2="619.60" stroke-width="0.8"/><line x1="1305.00" x2="1305.00" y1="619.60" y2="619.60" stroke="#c4b5fd" stroke-width="2.3"/><line x1="1305.00" x2="1305.00" y1="619.60" y2="619.60" stroke="#c4b5fd" stroke-width="5" stroke-linecap="round"/><line x1="1281.81" x2="1328.19" y1="619.60" y2="619.60" stroke="#f8fafc" stroke-width="2.2"/><line class="whisker" x1="1475.00" x2="1475.00" y1="400.01" y2="400.01" stroke-width="0.8"/><line class="whisker" x1="1451.81" x2="1498.19" y1="400.01" y2="400.01" stroke-width="0.8"/><line class="whisker" x1="1451.81" x2="1498.19" y1="400.01" y2="400.01" stroke-width="0.8"/><line x1="1475.00" x2="1475.00" y1="400.01" y2="400.01" stroke="#c4b5fd" stroke-width="2.3"/><line x1="1475.00" x2="1475.00" y1="400.01" y2="400.01" stroke="#c4b5fd" stroke-width="5" stroke-linecap="round"/><line x1="1451.81" x2="1498.19" y1="400.01" y2="400.01" stroke="#f8fafc" stroke-width="2.2"/><line class="whisker" x1="1645.00" x2="1645.00" y1="400.01" y2="400.01" stroke-width="0.8"/><line class="whisker" x1="1621.81" x2="1668.19" y1="400.01" y2="400.01" stroke-width="0.8"/><line class="whisker" x1="1621.81" x2="1668.19" y1="400.01" y2="400.01" stroke-width="0.8"/><line x1="1645.00" x2="1645.00" y1="400.01" y2="400.01" stroke="#c4b5fd" stroke-width="2.3"/><line x1="1645.00" x2="1645.00" y1="400.01" y2="400.01" stroke="#c4b5fd" stroke-width="5" stroke-linecap="round"/><line x1="1621.81" x2="1668.19" y1="400.01" y2="400.01" stroke="#f8fafc" stroke-width="2.2"/><path class="low-sample" d="M1815.00,930.00 L1815.00,919.86 L1815.00,909.72 L1815.00,899.58 L1815.00,889.44 L1815.00,879.30 L1815.00,869.15 L1815.00,859.01 L1814.99,848.87 L1814.99,838.73 L1814.97,828.59 L1814.95,818.45 L1814.92,808.31 L1814.87,798.17 L1814.78,788.03 L1814.65,777.89 L1814.46,767.75 L1814.18,757.61 L1813.79,747.46 L1813.27,737.32 L1812.58,727.18 L1811.70,717.04 L1810.62,706.90 L1809.32,696.76 L1807.84,686.62 L1806.18,676.48 L1804.42,666.34 L1802.63,656.20 L1800.88,646.06 L1799.26,635.92 L1797.87,625.77 L1796.76,615.63 L1795.97,605.49 L1795.50,595.35 L1795.29,585.21 L1795.27,575.07 L1795.31,564.93 L1795.26,554.79 L1795.00,544.65 L1794.38,534.51 L1793.34,524.37 L1791.83,514.23 L1789.90,504.08 L1787.63,493.94 L1785.19,483.80 L1782.77,473.66 L1780.61,463.52 L1778.90,453.38 L1777.86,443.24 L1777.60,433.10 L1778.20,422.96 L1779.65,412.82 L1781.86,402.68 L1784.70,392.54 L1787.99,382.39 L1791.52,372.25 L1795.11,362.11 L1798.57,351.97 L1801.78,341.83 L1804.63,331.69 L1807.07,321.55 L1809.09,311.41 L1810.71,301.27 L1811.96,291.13 L1812.90,280.99 L1813.59,270.85 L1814.08,260.70 L1814.41,250.56 L1814.63,240.42 L1814.78,230.28 L1814.87,220.14 L1814.92,210.00 L1815.08,210.00 L1815.13,220.14 L1815.22,230.28 L1815.37,240.42 L1815.59,250.56 L1815.92,260.70 L1816.41,270.85 L1817.10,280.99 L1818.04,291.13 L1819.29,301.27 L1820.91,311.41 L1822.93,321.55 L1825.37,331.69 L1828.22,341.83 L1831.43,351.97 L1834.89,362.11 L1838.48,372.25 L1842.01,382.39 L1845.30,392.54 L1848.14,402.68 L1850.35,412.82 L1851.80,422.96 L1852.40,433.10 L1852.14,443.24 L1851.10,453.38 L1849.39,463.52 L1847.23,473.66 L1844.81,483.80 L1842.37,493.94 L1840.10,504.08 L1838.17,514.23 L1836.66,524.37 L1835.62,534.51 L1835.00,544.65 L1834.74,554.79 L1834.69,564.93 L1834.73,575.07 L1834.71,585.21 L1834.50,595.35 L1834.03,605.49 L1833.24,615.63 L1832.13,625.77 L1830.74,635.92 L1829.12,646.06 L1827.37,656.20 L1825.58,666.34 L1823.82,676.48 L1822.16,686.62 L1820.68,696.76 L1819.38,706.90 L1818.30,717.04 L1817.42,727.18 L1816.73,737.32 L1816.21,747.46 L1815.82,757.61 L1815.54,767.75 L1815.35,777.89 L1815.22,788.03 L1815.13,798.17 L1815.08,808.31 L1815.05,818.45 L1815.03,828.59 L1815.01,838.73 L1815.01,848.87 L1815.00,859.01 L1815.00,869.15 L1815.00,879.30 L1815.00,889.44 L1815.00,899.58 L1815.00,909.72 L1815.00,919.86 L1815.00,930.00 Z" fill="url(#low-sample-0)" fill-opacity="0.70" stroke="#c4b5fd" stroke-width="2.4" data-effective-n="1.795"><title>07:00 Allied P1 + P5 minus Enemy P3 + P4; contributors 2; effective N 1.79</title></path><line class="whisker" x1="1815.00" x2="1815.00" y1="600.15" y2="432.35" stroke-width="0.8"/><line class="whisker" x1="1791.81" x2="1838.19" y1="600.15" y2="600.15" stroke-width="0.8"/><line class="whisker" x1="1791.81" x2="1838.19" y1="432.35" y2="432.35" stroke-width="0.8"/><line x1="1815.00" x2="1815.00" y1="600.15" y2="432.35" stroke="#c4b5fd" stroke-width="2.3"/><line x1="1815.00" x2="1815.00" y1="571.79" y2="432.35" stroke="#c4b5fd" stroke-width="5" stroke-linecap="round"/><line x1="1791.81" x2="1838.19" y1="487.89" y2="487.89" stroke="#f8fafc" stroke-width="2.2"/><path class="low-sample" d="M1985.00,930.00 L1985.00,919.86 L1985.00,909.72 L1985.00,899.58 L1985.00,889.44 L1985.00,879.30 L1985.00,869.15 L1985.00,859.01 L1985.00,848.87 L1985.00,838.73 L1985.00,828.59 L1985.00,818.45 L1985.00,808.31 L1985.00,798.17 L1985.00,788.03 L1985.00,777.89 L1985.00,767.75 L1985.00,757.61 L1984.99,747.46 L1984.99,737.32 L1984.97,727.18 L1984.93,717.04 L1984.86,706.90 L1984.73,696.76 L1984.51,686.62 L1984.18,676.48 L1983.70,666.34 L1983.07,656.20 L1982.33,646.06 L1981.53,635.92 L1980.77,625.77 L1980.17,615.63 L1979.81,605.49 L1979.75,595.35 L1979.95,585.21 L1980.29,575.07 L1980.57,564.93 L1980.51,554.79 L1979.81,544.65 L1978.18,534.51 L1975.41,524.37 L1971.44,514.23 L1966.44,504.08 L1960.86,493.94 L1955.41,483.80 L1950.91,473.66 L1948.14,463.52 L1947.60,453.38 L1949.40,443.24 L1953.20,433.10 L1958.35,422.96 L1964.03,412.82 L1969.51,402.68 L1974.25,392.54 L1978.00,382.39 L1980.71,372.25 L1982.53,362.11 L1983.66,351.97 L1984.32,341.83 L1984.67,331.69 L1984.85,321.55 L1984.94,311.41 L1984.97,301.27 L1984.99,291.13 L1985.00,280.99 L1985.00,270.85 L1985.00,260.70 L1985.00,250.56 L1985.00,240.42 L1985.00,230.28 L1985.00,220.14 L1985.00,210.00 L1985.00,210.00 L1985.00,220.14 L1985.00,230.28 L1985.00,240.42 L1985.00,250.56 L1985.00,260.70 L1985.00,270.85 L1985.00,280.99 L1985.01,291.13 L1985.03,301.27 L1985.06,311.41 L1985.15,321.55 L1985.33,331.69 L1985.68,341.83 L1986.34,351.97 L1987.47,362.11 L1989.29,372.25 L1992.00,382.39 L1995.75,392.54 L2000.49,402.68 L2005.97,412.82 L2011.65,422.96 L2016.80,433.10 L2020.60,443.24 L2022.40,453.38 L2021.86,463.52 L2019.09,473.66 L2014.59,483.80 L2009.14,493.94 L2003.56,504.08 L1998.56,514.23 L1994.59,524.37 L1991.82,534.51 L1990.19,544.65 L1989.49,554.79 L1989.43,564.93 L1989.71,575.07 L1990.05,585.21 L1990.25,595.35 L1990.19,605.49 L1989.83,615.63 L1989.23,625.77 L1988.47,635.92 L1987.67,646.06 L1986.93,656.20 L1986.30,666.34 L1985.82,676.48 L1985.49,686.62 L1985.27,696.76 L1985.14,706.90 L1985.07,717.04 L1985.03,727.18 L1985.01,737.32 L1985.01,747.46 L1985.00,757.61 L1985.00,767.75 L1985.00,777.89 L1985.00,788.03 L1985.00,798.17 L1985.00,808.31 L1985.00,818.45 L1985.00,828.59 L1985.00,838.73 L1985.00,848.87 L1985.00,859.01 L1985.00,869.15 L1985.00,879.30 L1985.00,889.44 L1985.00,899.58 L1985.00,909.72 L1985.00,919.86 L1985.00,930.00 Z" fill="url(#low-sample-0)" fill-opacity="0.70" stroke="#c4b5fd" stroke-width="2.4" data-effective-n="1.407"><title>07:30 Allied P1 + P5 minus Enemy P3 + P4; contributors 3; effective N 1.41</title></path><line class="whisker" x1="1985.00" x2="1985.00" y1="600.15" y2="432.35" stroke-width="0.8"/><line class="whisker" x1="1961.81" x2="2008.19" y1="600.15" y2="600.15" stroke-width="0.8"/><line class="whisker" x1="1961.81" x2="2008.19" y1="432.35" y2="432.35" stroke-width="0.8"/><line x1="1985.00" x2="1985.00" y1="588.30" y2="436.71" stroke="#c4b5fd" stroke-width="2.3"/><line x1="1985.00" x2="1985.00" y1="543.34" y2="445.19" stroke="#c4b5fd" stroke-width="5" stroke-linecap="round"/><line x1="1961.81" x2="2008.19" y1="468.42" y2="468.42" stroke="#f8fafc" stroke-width="2.2"/><path d="M2155.00,930.00 L2155.00,919.86 L2155.00,909.72 L2155.00,899.58 L2155.00,889.44 L2154.99,879.30 L2154.99,869.15 L2154.99,859.01 L2154.98,848.87 L2154.96,838.73 L2154.94,828.59 L2154.91,818.45 L2154.86,808.31 L2154.80,798.17 L2154.70,788.03 L2154.57,777.89 L2154.40,767.75 L2154.16,757.61 L2153.84,747.46 L2153.43,737.32 L2152.90,727.18 L2152.24,717.04 L2151.43,706.90 L2150.45,696.76 L2149.30,686.62 L2147.96,676.48 L2146.43,666.34 L2144.72,656.20 L2142.86,646.06 L2140.87,635.92 L2138.78,625.77 L2136.65,615.63 L2134.52,605.49 L2132.45,595.35 L2130.48,585.21 L2128.68,575.07 L2127.06,564.93 L2125.68,554.79 L2124.53,544.65 L2123.63,534.51 L2122.96,524.37 L2122.50,514.23 L2122.20,504.08 L2122.03,493.94 L2121.95,483.80 L2121.90,473.66 L2121.85,463.52 L2121.75,453.38 L2121.60,443.24 L2121.37,433.10 L2121.05,422.96 L2120.66,412.82 L2120.21,402.68 L2119.71,392.54 L2119.21,382.39 L2118.72,372.25 L2118.29,362.11 L2117.93,351.97 L2117.70,341.83 L2117.60,331.69 L2117.67,321.55 L2117.92,311.41 L2118.38,301.27 L2119.04,291.13 L2119.93,280.99 L2121.03,270.85 L2122.34,260.70 L2123.86,250.56 L2125.57,240.42 L2127.43,230.28 L2129.43,220.14 L2131.53,210.00 L2178.47,210.00 L2180.57,220.14 L2182.57,230.28 L2184.43,240.42 L2186.14,250.56 L2187.66,260.70 L2188.97,270.85 L2190.07,280.99 L2190.96,291.13 L2191.62,301.27 L2192.08,311.41 L2192.33,321.55 L2192.40,331.69 L2192.30,341.83 L2192.07,351.97 L2191.71,362.11 L2191.28,372.25 L2190.79,382.39 L2190.29,392.54 L2189.79,402.68 L2189.34,412.82 L2188.95,422.96 L2188.63,433.10 L2188.40,443.24 L2188.25,453.38 L2188.15,463.52 L2188.10,473.66 L2188.05,483.80 L2187.97,493.94 L2187.80,504.08 L2187.50,514.23 L2187.04,524.37 L2186.37,534.51 L2185.47,544.65 L2184.32,554.79 L2182.94,564.93 L2181.32,575.07 L2179.52,585.21 L2177.55,595.35 L2175.48,605.49 L2173.35,615.63 L2171.22,625.77 L2169.13,635.92 L2167.14,646.06 L2165.28,656.20 L2163.57,666.34 L2162.04,676.48 L2160.70,686.62 L2159.55,696.76 L2158.57,706.90 L2157.76,717.04 L2157.10,727.18 L2156.57,737.32 L2156.16,747.46 L2155.84,757.61 L2155.60,767.75 L2155.43,777.89 L2155.30,788.03 L2155.20,798.17 L2155.14,808.31 L2155.09,818.45 L2155.06,828.59 L2155.04,838.73 L2155.02,848.87 L2155.01,859.01 L2155.01,869.15 L2155.01,879.30 L2155.00,889.44 L2155.00,899.58 L2155.00,909.72 L2155.00,919.86 L2155.00,930.00 Z" fill="#c4b5fd" fill-opacity="0.18" stroke="#c4b5fd" stroke-width="1.1" data-effective-n="4.185"><title>08:00 Allied P1 + P5 minus Enemy P3 + P4; contributors 5; effective N 4.19</title></path><line class="whisker" x1="2155.00" x2="2155.00" y1="548.82" y2="242.69" stroke-width="0.8"/><line class="whisker" x1="2131.81" x2="2178.19" y1="548.82" y2="548.82" stroke-width="0.8"/><line class="whisker" x1="2131.81" x2="2178.19" y1="242.69" y2="242.69" stroke-width="0.8"/><line x1="2155.00" x2="2155.00" y1="548.82" y2="242.69" stroke="#c4b5fd" stroke-width="2.3"/><line x1="2155.00" x2="2155.00" y1="505.54" y2="291.32" stroke="#c4b5fd" stroke-width="5" stroke-linecap="round"/><line x1="2131.81" x2="2178.19" y1="389.07" y2="389.07" stroke="#f8fafc" stroke-width="2.2"/><path class="low-sample" d="M2325.00,930.00 L2325.00,919.86 L2325.00,909.72 L2325.00,899.58 L2325.00,889.44 L2325.00,879.30 L2325.00,869.15 L2325.00,859.01 L2325.00,848.87 L2325.00,838.73 L2325.00,828.59 L2325.00,818.45 L2325.00,808.31 L2325.00,798.17 L2325.00,788.03 L2325.00,777.89 L2324.99,767.75 L2324.99,757.61 L2324.98,747.46 L2324.96,737.32 L2324.94,727.18 L2324.91,717.04 L2324.87,706.90 L2324.81,696.76 L2324.73,686.62 L2324.63,676.48 L2324.50,666.34 L2324.34,656.20 L2324.14,646.06 L2323.92,635.92 L2323.66,625.77 L2323.37,615.63 L2323.05,605.49 L2322.69,595.35 L2322.30,585.21 L2321.87,575.07 L2321.37,564.93 L2320.80,554.79 L2320.11,544.65 L2319.29,534.51 L2318.29,524.37 L2317.08,514.23 L2315.66,504.08 L2314.01,493.94 L2312.15,483.80 L2310.13,473.66 L2307.98,463.52 L2305.80,453.38 L2303.67,443.24 L2301.67,433.10 L2299.89,422.96 L2298.37,412.82 L2297.14,402.68 L2296.21,392.54 L2295.53,382.39 L2295.03,372.25 L2294.64,362.11 L2294.26,351.97 L2293.80,341.83 L2293.20,331.69 L2292.43,321.55 L2291.50,311.41 L2290.48,301.27 L2289.44,291.13 L2288.53,280.99 L2287.87,270.85 L2287.60,260.70 L2287.84,250.56 L2288.66,240.42 L2290.10,230.28 L2292.12,220.14 L2294.65,210.00 L2355.35,210.00 L2357.88,220.14 L2359.90,230.28 L2361.34,240.42 L2362.16,250.56 L2362.40,260.70 L2362.13,270.85 L2361.47,280.99 L2360.56,291.13 L2359.52,301.27 L2358.50,311.41 L2357.57,321.55 L2356.80,331.69 L2356.20,341.83 L2355.74,351.97 L2355.36,362.11 L2354.97,372.25 L2354.47,382.39 L2353.79,392.54 L2352.86,402.68 L2351.63,412.82 L2350.11,422.96 L2348.33,433.10 L2346.33,443.24 L2344.20,453.38 L2342.02,463.52 L2339.87,473.66 L2337.85,483.80 L2335.99,493.94 L2334.34,504.08 L2332.92,514.23 L2331.71,524.37 L2330.71,534.51 L2329.89,544.65 L2329.20,554.79 L2328.63,564.93 L2328.13,575.07 L2327.70,585.21 L2327.31,595.35 L2326.95,605.49 L2326.63,615.63 L2326.34,625.77 L2326.08,635.92 L2325.86,646.06 L2325.66,656.20 L2325.50,666.34 L2325.37,676.48 L2325.27,686.62 L2325.19,696.76 L2325.13,706.90 L2325.09,717.04 L2325.06,727.18 L2325.04,737.32 L2325.02,747.46 L2325.01,757.61 L2325.01,767.75 L2325.00,777.89 L2325.00,788.03 L2325.00,798.17 L2325.00,808.31 L2325.00,818.45 L2325.00,828.59 L2325.00,838.73 L2325.00,848.87 L2325.00,859.01 L2325.00,869.15 L2325.00,879.30 L2325.00,889.44 L2325.00,899.58 L2325.00,909.72 L2325.00,919.86 L2325.00,930.00 Z" fill="url(#low-sample-0)" fill-opacity="0.70" stroke="#c4b5fd" stroke-width="2.4" data-effective-n="2.644"><title>08:30 Allied P1 + P5 minus Enemy P3 + P4; contributors 4; effective N 2.64</title></path><line class="whisker" x1="2325.00" x2="2325.00" y1="548.82" y2="242.69" stroke-width="0.8"/><line class="whisker" x1="2301.81" x2="2348.19" y1="548.82" y2="548.82" stroke-width="0.8"/><line class="whisker" x1="2301.81" x2="2348.19" y1="242.69" y2="242.69" stroke-width="0.8"/><line x1="2325.00" x2="2325.00" y1="486.15" y2="242.69" stroke="#c4b5fd" stroke-width="2.3"/><line x1="2325.00" x2="2325.00" y1="392.92" y2="242.69" stroke="#c4b5fd" stroke-width="5" stroke-linecap="round"/><line x1="2301.81" x2="2348.19" y1="316.86" y2="316.86" stroke="#f8fafc" stroke-width="2.2"/><line class="whisker" x1="2495.00" x2="2495.00" y1="487.14" y2="487.14" stroke-width="0.8"/><line class="whisker" x1="2471.81" x2="2518.19" y1="487.14" y2="487.14" stroke-width="0.8"/><line class="whisker" x1="2471.81" x2="2518.19" y1="487.14" y2="487.14" stroke-width="0.8"/><line x1="2495.00" x2="2495.00" y1="487.14" y2="487.14" stroke="#c4b5fd" stroke-width="2.3"/><line x1="2495.00" x2="2495.00" y1="487.14" y2="487.14" stroke="#c4b5fd" stroke-width="5" stroke-linecap="round"/><line x1="2471.81" x2="2518.19" y1="487.14" y2="487.14" stroke="#f8fafc" stroke-width="2.2"/><path class="low-sample" d="M2665.00,930.00 L2665.00,919.86 L2665.00,909.72 L2665.00,899.58 L2665.00,889.44 L2665.00,879.30 L2665.00,869.15 L2665.00,859.01 L2665.00,848.87 L2665.00,838.73 L2665.00,828.59 L2665.00,818.45 L2665.00,808.31 L2665.00,798.17 L2665.00,788.03 L2665.00,777.89 L2665.00,767.75 L2665.00,757.61 L2665.00,747.46 L2665.00,737.32 L2664.99,727.18 L2664.97,717.04 L2664.93,706.90 L2664.80,696.76 L2664.53,686.62 L2663.95,676.48 L2662.86,666.34 L2660.98,656.20 L2658.05,646.06 L2653.91,635.92 L2648.71,625.77 L2642.89,615.63 L2637.25,605.49 L2632.65,595.35 L2629.80,585.21 L2628.90,575.07 L2629.56,564.93 L2630.94,554.79 L2632.08,544.65 L2632.25,534.51 L2631.27,524.37 L2629.56,514.23 L2628.01,504.08 L2627.60,493.94 L2629.04,483.80 L2632.50,473.66 L2637.55,463.52 L2643.39,453.38 L2649.12,443.24 L2654.07,433.10 L2657.91,422.96 L2660.61,412.82 L2662.38,402.68 L2663.48,392.54 L2664.13,382.39 L2664.51,372.25 L2664.73,362.11 L2664.86,351.97 L2664.93,341.83 L2664.97,331.69 L2664.99,321.55 L2664.99,311.41 L2665.00,301.27 L2665.00,291.13 L2665.00,280.99 L2665.00,270.85 L2665.00,260.70 L2665.00,250.56 L2665.00,240.42 L2665.00,230.28 L2665.00,220.14 L2665.00,210.00 L2665.00,210.00 L2665.00,220.14 L2665.00,230.28 L2665.00,240.42 L2665.00,250.56 L2665.00,260.70 L2665.00,270.85 L2665.00,280.99 L2665.00,291.13 L2665.00,301.27 L2665.01,311.41 L2665.01,321.55 L2665.03,331.69 L2665.07,341.83 L2665.14,351.97 L2665.27,362.11 L2665.49,372.25 L2665.87,382.39 L2666.52,392.54 L2667.62,402.68 L2669.39,412.82 L2672.09,422.96 L2675.93,433.10 L2680.88,443.24 L2686.61,453.38 L2692.45,463.52 L2697.50,473.66 L2700.96,483.80 L2702.40,493.94 L2701.99,504.08 L2700.44,514.23 L2698.73,524.37 L2697.75,534.51 L2697.92,544.65 L2699.06,554.79 L2700.44,564.93 L2701.10,575.07 L2700.20,585.21 L2697.35,595.35 L2692.75,605.49 L2687.11,615.63 L2681.29,625.77 L2676.09,635.92 L2671.95,646.06 L2669.02,656.20 L2667.14,666.34 L2666.05,676.48 L2665.47,686.62 L2665.20,696.76 L2665.07,706.90 L2665.03,717.04 L2665.01,727.18 L2665.00,737.32 L2665.00,747.46 L2665.00,757.61 L2665.00,767.75 L2665.00,777.89 L2665.00,788.03 L2665.00,798.17 L2665.00,808.31 L2665.00,818.45 L2665.00,828.59 L2665.00,838.73 L2665.00,848.87 L2665.00,859.01 L2665.00,869.15 L2665.00,879.30 L2665.00,889.44 L2665.00,899.58 L2665.00,909.72 L2665.00,919.86 L2665.00,930.00 Z" fill="url(#low-sample-0)" fill-opacity="0.70" stroke="#c4b5fd" stroke-width="2.4" data-effective-n="2.642"><title>09:30 Allied P1 + P5 minus Enemy P3 + P4; contributors 5; effective N 2.64</title></path><line class="whisker" x1="2665.00" x2="2665.00" y1="584.96" y2="424.64" stroke-width="0.8"/><line class="whisker" x1="2641.81" x2="2688.19" y1="584.96" y2="584.96" stroke-width="0.8"/><line class="whisker" x1="2641.81" x2="2688.19" y1="424.64" y2="424.64" stroke-width="0.8"/><line x1="2665.00" x2="2665.00" y1="584.96" y2="450.78" stroke="#c4b5fd" stroke-width="2.3"/><line x1="2665.00" x2="2665.00" y1="578.55" y2="489.24" stroke="#c4b5fd" stroke-width="5" stroke-linecap="round"/><line x1="2641.81" x2="2688.19" y1="528.25" y2="528.25" stroke="#f8fafc" stroke-width="2.2"/><path class="low-sample" d="M2835.00,930.00 L2835.00,919.86 L2835.00,909.72 L2835.00,899.58 L2835.00,889.44 L2835.00,879.30 L2835.00,869.15 L2835.00,859.01 L2835.00,848.87 L2835.00,838.73 L2835.00,828.59 L2835.00,818.45 L2835.00,808.31 L2835.00,798.17 L2835.00,788.03 L2835.00,777.89 L2835.00,767.75 L2835.00,757.61 L2835.00,747.46 L2835.00,737.32 L2835.00,727.18 L2835.00,717.04 L2835.00,706.90 L2835.00,696.76 L2834.99,686.62 L2834.97,676.48 L2834.92,666.34 L2834.80,656.20 L2834.56,646.06 L2834.13,635.92 L2833.46,625.77 L2832.53,615.63 L2831.31,605.49 L2829.77,595.35 L2827.75,585.21 L2824.94,575.07 L2820.99,564.93 L2815.75,554.79 L2809.58,544.65 L2803.52,534.51 L2799.07,524.37 L2797.60,514.23 L2799.73,504.08 L2804.92,493.94 L2811.65,483.80 L2818.17,473.66 L2823.14,463.52 L2826.13,453.38 L2827.49,443.24 L2827.98,433.10 L2828.38,422.96 L2829.11,412.82 L2830.23,402.68 L2831.54,392.54 L2832.76,382.39 L2833.71,372.25 L2834.34,362.11 L2834.70,351.97 L2834.88,341.83 L2834.96,331.69 L2834.99,321.55 L2835.00,311.41 L2835.00,301.27 L2835.00,291.13 L2835.00,280.99 L2835.00,270.85 L2835.00,260.70 L2835.00,250.56 L2835.00,240.42 L2835.00,230.28 L2835.00,220.14 L2835.00,210.00 L2835.00,210.00 L2835.00,220.14 L2835.00,230.28 L2835.00,240.42 L2835.00,250.56 L2835.00,260.70 L2835.00,270.85 L2835.00,280.99 L2835.00,291.13 L2835.00,301.27 L2835.00,311.41 L2835.01,321.55 L2835.04,331.69 L2835.12,341.83 L2835.30,351.97 L2835.66,362.11 L2836.29,372.25 L2837.24,382.39 L2838.46,392.54 L2839.77,402.68 L2840.89,412.82 L2841.62,422.96 L2842.02,433.10 L2842.51,443.24 L2843.87,453.38 L2846.86,463.52 L2851.83,473.66 L2858.35,483.80 L2865.08,493.94 L2870.27,504.08 L2872.40,514.23 L2870.93,524.37 L2866.48,534.51 L2860.42,544.65 L2854.25,554.79 L2849.01,564.93 L2845.06,575.07 L2842.25,585.21 L2840.23,595.35 L2838.69,605.49 L2837.47,615.63 L2836.54,625.77 L2835.87,635.92 L2835.44,646.06 L2835.20,656.20 L2835.08,666.34 L2835.03,676.48 L2835.01,686.62 L2835.00,696.76 L2835.00,706.90 L2835.00,717.04 L2835.00,727.18 L2835.00,737.32 L2835.00,747.46 L2835.00,757.61 L2835.00,767.75 L2835.00,777.89 L2835.00,788.03 L2835.00,798.17 L2835.00,808.31 L2835.00,818.45 L2835.00,828.59 L2835.00,838.73 L2835.00,848.87 L2835.00,859.01 L2835.00,869.15 L2835.00,879.30 L2835.00,889.44 L2835.00,899.58 L2835.00,909.72 L2835.00,919.86 L2835.00,930.00 Z" fill="url(#low-sample-0)" fill-opacity="0.70" stroke="#c4b5fd" stroke-width="2.4" data-effective-n="2.185"><title>10:00 Allied P1 + P5 minus Enemy P3 + P4; contributors 4; effective N 2.19</title></path><line class="whisker" x1="2835.00" x2="2835.00" y1="584.96" y2="424.64" stroke-width="0.8"/><line class="whisker" x1="2811.81" x2="2858.19" y1="584.96" y2="584.96" stroke-width="0.8"/><line class="whisker" x1="2811.81" x2="2858.19" y1="424.64" y2="424.64" stroke-width="0.8"/><line x1="2835.00" x2="2835.00" y1="560.08" y2="432.95" stroke="#c4b5fd" stroke-width="2.3"/><line x1="2835.00" x2="2835.00" y1="531.91" y2="466.53" stroke="#c4b5fd" stroke-width="5" stroke-linecap="round"/><line x1="2811.81" x2="2858.19" y1="514.28" y2="514.28" stroke="#f8fafc" stroke-width="2.2"/><line class="whisker" x1="3005.00" x2="3005.00" y1="460.32" y2="460.32" stroke-width="0.8"/><line class="whisker" x1="2981.81" x2="3028.19" y1="460.32" y2="460.32" stroke-width="0.8"/><line class="whisker" x1="2981.81" x2="3028.19" y1="460.32" y2="460.32" stroke-width="0.8"/><line x1="3005.00" x2="3005.00" y1="460.32" y2="460.32" stroke="#c4b5fd" stroke-width="2.3"/><line x1="3005.00" x2="3005.00" y1="460.32" y2="460.32" stroke="#c4b5fd" stroke-width="5" stroke-linecap="round"/><line x1="2981.81" x2="3028.19" y1="460.32" y2="460.32" stroke="#f8fafc" stroke-width="2.2"/><path class="low-sample" d="M3175.00,930.00 L3175.00,919.86 L3175.00,909.72 L3175.00,899.58 L3175.00,889.44 L3175.00,879.30 L3175.00,869.15 L3175.00,859.01 L3175.00,848.87 L3175.00,838.73 L3175.00,828.59 L3175.00,818.45 L3175.00,808.31 L3174.99,798.17 L3174.97,788.03 L3174.94,777.89 L3174.87,767.75 L3174.73,757.61 L3174.50,747.46 L3174.09,737.32 L3173.45,727.18 L3172.48,717.04 L3171.11,706.90 L3169.30,696.76 L3167.05,686.62 L3164.43,676.48 L3161.57,666.34 L3158.66,656.20 L3155.86,646.06 L3153.30,635.92 L3151.01,625.77 L3148.92,615.63 L3146.91,605.49 L3144.89,595.35 L3142.82,585.21 L3140.82,575.07 L3139.11,564.93 L3137.96,554.79 L3137.60,544.65 L3138.15,534.51 L3139.55,524.37 L3141.60,514.23 L3144.02,504.08 L3146.56,493.94 L3149.05,483.80 L3151.44,473.66 L3153.77,463.52 L3156.13,453.38 L3158.59,443.24 L3161.12,433.10 L3163.67,422.96 L3166.12,412.82 L3168.34,402.68 L3170.23,392.54 L3171.75,382.39 L3172.89,372.25 L3173.70,362.11 L3174.24,351.97 L3174.58,341.83 L3174.78,331.69 L3174.89,321.55 L3174.95,311.41 L3174.98,301.27 L3174.99,291.13 L3175.00,280.99 L3175.00,270.85 L3175.00,260.70 L3175.00,250.56 L3175.00,240.42 L3175.00,230.28 L3175.00,220.14 L3175.00,210.00 L3175.00,210.00 L3175.00,220.14 L3175.00,230.28 L3175.00,240.42 L3175.00,250.56 L3175.00,260.70 L3175.00,270.85 L3175.00,280.99 L3175.01,291.13 L3175.02,301.27 L3175.05,311.41 L3175.11,321.55 L3175.22,331.69 L3175.42,341.83 L3175.76,351.97 L3176.30,362.11 L3177.11,372.25 L3178.25,382.39 L3179.77,392.54 L3181.66,402.68 L3183.88,412.82 L3186.33,422.96 L3188.88,433.10 L3191.41,443.24 L3193.87,453.38 L3196.23,463.52 L3198.56,473.66 L3200.95,483.80 L3203.44,493.94 L3205.98,504.08 L3208.40,514.23 L3210.45,524.37 L3211.85,534.51 L3212.40,544.65 L3212.04,554.79 L3210.89,564.93 L3209.18,575.07 L3207.18,585.21 L3205.11,595.35 L3203.09,605.49 L3201.08,615.63 L3198.99,625.77 L3196.70,635.92 L3194.14,646.06 L3191.34,656.20 L3188.43,666.34 L3185.57,676.48 L3182.95,686.62 L3180.70,696.76 L3178.89,706.90 L3177.52,717.04 L3176.55,727.18 L3175.91,737.32 L3175.50,747.46 L3175.27,757.61 L3175.13,767.75 L3175.06,777.89 L3175.03,788.03 L3175.01,798.17 L3175.00,808.31 L3175.00,818.45 L3175.00,828.59 L3175.00,838.73 L3175.00,848.87 L3175.00,859.01 L3175.00,869.15 L3175.00,879.30 L3175.00,889.44 L3175.00,899.58 L3175.00,909.72 L3175.00,919.86 L3175.00,930.00 Z" fill="url(#low-sample-0)" fill-opacity="0.70" stroke="#c4b5fd" stroke-width="2.4" data-effective-n="2.695"><title>11:00 Allied P1 + P5 minus Enemy P3 + P4; contributors 3; effective N 2.70</title></path><line class="whisker" x1="3175.00" x2="3175.00" y1="628.69" y2="460.32" stroke-width="0.8"/><line class="whisker" x1="3151.81" x2="3198.19" y1="628.69" y2="628.69" stroke-width="0.8"/><line class="whisker" x1="3151.81" x2="3198.19" y1="460.32" y2="460.32" stroke-width="0.8"/><line x1="3175.00" x2="3175.00" y1="628.69" y2="460.32" stroke="#c4b5fd" stroke-width="2.3"/><line x1="3175.00" x2="3175.00" y1="604.39" y2="491.52" stroke="#c4b5fd" stroke-width="5" stroke-linecap="round"/><line x1="3151.81" x2="3198.19" y1="549.19" y2="549.19" stroke="#f8fafc" stroke-width="2.2"/><path class="low-sample" d="M3345.00,930.00 L3345.00,919.86 L3345.00,909.72 L3345.00,899.58 L3345.00,889.44 L3345.00,879.30 L3345.00,869.15 L3345.00,859.01 L3345.00,848.87 L3345.00,838.73 L3345.00,828.59 L3345.00,818.45 L3345.00,808.31 L3345.00,798.17 L3344.99,788.03 L3344.99,777.89 L3344.97,767.75 L3344.95,757.61 L3344.90,747.46 L3344.83,737.32 L3344.72,727.18 L3344.54,717.04 L3344.29,706.90 L3343.95,696.76 L3343.50,686.62 L3342.95,676.48 L3342.30,666.34 L3341.57,656.20 L3340.77,646.06 L3339.93,635.92 L3339.07,625.77 L3338.19,615.63 L3337.31,605.49 L3336.41,595.35 L3335.50,585.21 L3334.56,575.07 L3333.57,564.93 L3332.49,554.79 L3331.27,544.65 L3329.79,534.51 L3327.97,524.37 L3325.72,514.23 L3322.99,504.08 L3319.86,493.94 L3316.51,483.80 L3313.24,473.66 L3310.42,463.52 L3308.44,453.38 L3307.60,443.24 L3308.08,433.10 L3309.88,422.96 L3312.80,412.82 L3316.53,402.68 L3320.70,392.54 L3324.94,382.39 L3328.95,372.25 L3332.53,362.11 L3335.56,351.97 L3338.02,341.83 L3339.96,331.69 L3341.44,321.55 L3342.54,311.41 L3343.34,301.27 L3343.91,291.13 L3344.31,280.99 L3344.57,270.85 L3344.74,260.70 L3344.85,250.56 L3344.92,240.42 L3344.96,230.28 L3344.98,220.14 L3344.99,210.00 L3345.01,210.00 L3345.02,220.14 L3345.04,230.28 L3345.08,240.42 L3345.15,250.56 L3345.26,260.70 L3345.43,270.85 L3345.69,280.99 L3346.09,291.13 L3346.66,301.27 L3347.46,311.41 L3348.56,321.55 L3350.04,331.69 L3351.98,341.83 L3354.44,351.97 L3357.47,362.11 L3361.05,372.25 L3365.06,382.39 L3369.30,392.54 L3373.47,402.68 L3377.20,412.82 L3380.12,422.96 L3381.92,433.10 L3382.40,443.24 L3381.56,453.38 L3379.58,463.52 L3376.76,473.66 L3373.49,483.80 L3370.14,493.94 L3367.01,504.08 L3364.28,514.23 L3362.03,524.37 L3360.21,534.51 L3358.73,544.65 L3357.51,554.79 L3356.43,564.93 L3355.44,575.07 L3354.50,585.21 L3353.59,595.35 L3352.69,605.49 L3351.81,615.63 L3350.93,625.77 L3350.07,635.92 L3349.23,646.06 L3348.43,656.20 L3347.70,666.34 L3347.05,676.48 L3346.50,686.62 L3346.05,696.76 L3345.71,706.90 L3345.46,717.04 L3345.28,727.18 L3345.17,737.32 L3345.10,747.46 L3345.05,757.61 L3345.03,767.75 L3345.01,777.89 L3345.01,788.03 L3345.00,798.17 L3345.00,808.31 L3345.00,818.45 L3345.00,828.59 L3345.00,838.73 L3345.00,848.87 L3345.00,859.01 L3345.00,869.15 L3345.00,879.30 L3345.00,889.44 L3345.00,899.58 L3345.00,909.72 L3345.00,919.86 L3345.00,930.00 Z" fill="url(#low-sample-0)" fill-opacity="0.70" stroke="#c4b5fd" stroke-width="2.4" data-effective-n="2.085"><title>11:30 Allied P1 + P5 minus Enemy P3 + P4; contributors 5; effective N 2.08</title></path><line class="whisker" x1="3345.00" x2="3345.00" y1="615.69" y2="372.97" stroke-width="0.8"/><line class="whisker" x1="3321.81" x2="3368.19" y1="615.69" y2="615.69" stroke-width="0.8"/><line class="whisker" x1="3321.81" x2="3368.19" y1="372.97" y2="372.97" stroke-width="0.8"/><line x1="3345.00" x2="3345.00" y1="567.40" y2="384.95" stroke="#c4b5fd" stroke-width="2.3"/><line x1="3345.00" x2="3345.00" y1="524.33" y2="412.44" stroke="#c4b5fd" stroke-width="5" stroke-linecap="round"/><line x1="3321.81" x2="3368.19" y1="463.81" y2="463.81" stroke="#f8fafc" stroke-width="2.2"/><path d="M3508.36,930.00 L3507.36,919.86 L3506.29,909.72 L3505.16,899.58 L3503.98,889.44 L3502.76,879.30 L3501.52,869.15 L3500.27,859.01 L3499.03,848.87 L3497.82,838.73 L3496.64,828.59 L3495.51,818.45 L3494.44,808.31 L3493.42,798.17 L3492.47,788.03 L3491.58,777.89 L3490.74,767.75 L3489.96,757.61 L3489.21,747.46 L3488.50,737.32 L3487.80,727.18 L3487.13,717.04 L3486.46,706.90 L3485.80,696.76 L3485.14,686.62 L3484.48,676.48 L3483.83,666.34 L3483.19,656.20 L3482.56,646.06 L3481.97,635.92 L3481.40,625.77 L3480.87,615.63 L3480.38,605.49 L3479.94,595.35 L3479.55,585.21 L3479.19,575.07 L3478.89,564.93 L3478.62,554.79 L3478.38,544.65 L3478.18,534.51 L3478.00,524.37 L3477.85,514.23 L3477.73,504.08 L3477.65,493.94 L3477.60,483.80 L3477.60,473.66 L3477.67,463.52 L3477.82,453.38 L3478.06,443.24 L3478.40,433.10 L3478.88,422.96 L3479.49,412.82 L3480.25,402.68 L3481.17,392.54 L3482.24,382.39 L3483.47,372.25 L3484.84,362.11 L3486.34,351.97 L3487.96,341.83 L3489.68,331.69 L3491.46,321.55 L3493.29,311.41 L3495.13,301.27 L3496.97,291.13 L3498.78,280.99 L3500.52,270.85 L3502.20,260.70 L3503.77,250.56 L3505.24,240.42 L3506.60,230.28 L3507.83,220.14 L3508.93,210.00 L3521.07,210.00 L3522.17,220.14 L3523.40,230.28 L3524.76,240.42 L3526.23,250.56 L3527.80,260.70 L3529.48,270.85 L3531.22,280.99 L3533.03,291.13 L3534.87,301.27 L3536.71,311.41 L3538.54,321.55 L3540.32,331.69 L3542.04,341.83 L3543.66,351.97 L3545.16,362.11 L3546.53,372.25 L3547.76,382.39 L3548.83,392.54 L3549.75,402.68 L3550.51,412.82 L3551.12,422.96 L3551.60,433.10 L3551.94,443.24 L3552.18,453.38 L3552.33,463.52 L3552.40,473.66 L3552.40,483.80 L3552.35,493.94 L3552.27,504.08 L3552.15,514.23 L3552.00,524.37 L3551.82,534.51 L3551.62,544.65 L3551.38,554.79 L3551.11,564.93 L3550.81,575.07 L3550.45,585.21 L3550.06,595.35 L3549.62,605.49 L3549.13,615.63 L3548.60,625.77 L3548.03,635.92 L3547.44,646.06 L3546.81,656.20 L3546.17,666.34 L3545.52,676.48 L3544.86,686.62 L3544.20,696.76 L3543.54,706.90 L3542.87,717.04 L3542.20,727.18 L3541.50,737.32 L3540.79,747.46 L3540.04,757.61 L3539.26,767.75 L3538.42,777.89 L3537.53,788.03 L3536.58,798.17 L3535.56,808.31 L3534.49,818.45 L3533.36,828.59 L3532.18,838.73 L3530.97,848.87 L3529.73,859.01 L3528.48,869.15 L3527.24,879.30 L3526.02,889.44 L3524.84,899.58 L3523.71,909.72 L3522.64,919.86 L3521.64,930.00 Z" fill="#c4b5fd" fill-opacity="0.18" stroke="#c4b5fd" stroke-width="1.1" data-effective-n="4.608"><title>12:00 Allied P1 + P5 minus Enemy P3 + P4; contributors 5; effective N 4.61</title></path><line class="whisker" x1="3515.00" x2="3515.00" y1="787.52" y2="372.97" stroke-width="0.8"/><line class="whisker" x1="3491.81" x2="3538.19" y1="787.52" y2="787.52" stroke-width="0.8"/><line class="whisker" x1="3491.81" x2="3538.19" y1="372.97" y2="372.97" stroke-width="0.8"/><line x1="3515.00" x2="3515.00" y1="787.52" y2="372.97" stroke="#c4b5fd" stroke-width="2.3"/><line x1="3515.00" x2="3515.00" y1="692.17" y2="416.73" stroke="#c4b5fd" stroke-width="5" stroke-linecap="round"/><line x1="3491.81" x2="3538.19" y1="553.37" y2="553.37" stroke="#f8fafc" stroke-width="2.2"/><path class="low-sample" d="M3682.49,930.00 L3681.37,919.86 L3679.89,909.72 L3678.01,899.58 L3675.67,889.44 L3672.90,879.30 L3669.72,869.15 L3666.23,859.01 L3662.55,848.87 L3658.87,838.73 L3655.40,828.59 L3652.35,818.45 L3649.93,808.31 L3648.32,798.17 L3647.60,788.03 L3647.80,777.89 L3648.87,767.75 L3650.66,757.61 L3652.96,747.46 L3655.56,737.32 L3658.19,727.18 L3660.64,717.04 L3662.74,706.90 L3664.38,696.76 L3665.53,686.62 L3666.22,676.48 L3666.54,666.34 L3666.63,656.20 L3666.63,646.06 L3666.70,635.92 L3666.95,625.77 L3667.46,615.63 L3668.29,605.49 L3669.43,595.35 L3670.83,585.21 L3672.42,575.07 L3674.12,564.93 L3675.83,554.79 L3677.48,544.65 L3678.99,534.51 L3680.33,524.37 L3681.47,514.23 L3682.40,504.08 L3683.14,493.94 L3683.70,483.80 L3684.12,473.66 L3684.42,463.52 L3684.63,453.38 L3684.77,443.24 L3684.86,433.10 L3684.92,422.96 L3684.95,412.82 L3684.97,402.68 L3684.99,392.54 L3684.99,382.39 L3685.00,372.25 L3685.00,362.11 L3685.00,351.97 L3685.00,341.83 L3685.00,331.69 L3685.00,321.55 L3685.00,311.41 L3685.00,301.27 L3685.00,291.13 L3685.00,280.99 L3685.00,270.85 L3685.00,260.70 L3685.00,250.56 L3685.00,240.42 L3685.00,230.28 L3685.00,220.14 L3685.00,210.00 L3685.00,210.00 L3685.00,220.14 L3685.00,230.28 L3685.00,240.42 L3685.00,250.56 L3685.00,260.70 L3685.00,270.85 L3685.00,280.99 L3685.00,291.13 L3685.00,301.27 L3685.00,311.41 L3685.00,321.55 L3685.00,331.69 L3685.00,341.83 L3685.00,351.97 L3685.00,362.11 L3685.00,372.25 L3685.01,382.39 L3685.01,392.54 L3685.03,402.68 L3685.05,412.82 L3685.08,422.96 L3685.14,433.10 L3685.23,443.24 L3685.37,453.38 L3685.58,463.52 L3685.88,473.66 L3686.30,483.80 L3686.86,493.94 L3687.60,504.08 L3688.53,514.23 L3689.67,524.37 L3691.01,534.51 L3692.52,544.65 L3694.17,554.79 L3695.88,564.93 L3697.58,575.07 L3699.17,585.21 L3700.57,595.35 L3701.71,605.49 L3702.54,615.63 L3703.05,625.77 L3703.30,635.92 L3703.37,646.06 L3703.37,656.20 L3703.46,666.34 L3703.78,676.48 L3704.47,686.62 L3705.62,696.76 L3707.26,706.90 L3709.36,717.04 L3711.81,727.18 L3714.44,737.32 L3717.04,747.46 L3719.34,757.61 L3721.13,767.75 L3722.20,777.89 L3722.40,788.03 L3721.68,798.17 L3720.07,808.31 L3717.65,818.45 L3714.60,828.59 L3711.13,838.73 L3707.45,848.87 L3703.77,859.01 L3700.28,869.15 L3697.10,879.30 L3694.33,889.44 L3691.99,899.58 L3690.11,909.72 L3688.63,919.86 L3687.51,930.00 Z" fill="url(#low-sample-0)" fill-opacity="0.70" stroke="#c4b5fd" stroke-width="2.4" data-effective-n="1.757"><title>12:30 Allied P1 + P5 minus Enemy P3 + P4; contributors 2; effective N 1.76</title></path><line class="whisker" x1="3685.00" x2="3685.00" y1="787.52" y2="622.94" stroke-width="0.8"/><line class="whisker" x1="3661.81" x2="3708.19" y1="787.52" y2="787.52" stroke-width="0.8"/><line class="whisker" x1="3661.81" x2="3708.19" y1="622.94" y2="622.94" stroke-width="0.8"/><line x1="3685.00" x2="3685.00" y1="787.52" y2="622.94" stroke="#c4b5fd" stroke-width="2.3"/><line x1="3685.00" x2="3685.00" y1="787.52" y2="653.53" stroke="#c4b5fd" stroke-width="5" stroke-linecap="round"/><line x1="3661.81" x2="3708.19" y1="735.82" y2="735.82" stroke="#f8fafc" stroke-width="2.2"/><path class="low-sample" d="M3855.00,930.00 L3855.00,919.86 L3855.00,909.72 L3855.00,899.58 L3855.00,889.44 L3855.00,879.30 L3855.00,869.15 L3855.00,859.01 L3855.00,848.87 L3855.00,838.73 L3855.00,828.59 L3855.00,818.45 L3855.00,808.31 L3855.00,798.17 L3855.00,788.03 L3855.00,777.89 L3855.00,767.75 L3855.00,757.61 L3855.00,747.46 L3854.98,737.32 L3854.94,727.18 L3854.82,717.04 L3854.49,706.90 L3853.69,696.76 L3852.02,686.62 L3849.00,676.48 L3844.24,666.34 L3837.81,656.20 L3830.50,646.06 L3823.72,635.92 L3819.06,625.77 L3817.60,615.63 L3819.42,605.49 L3823.68,595.35 L3829.12,585.21 L3834.56,575.07 L3839.20,564.93 L3842.65,554.79 L3844.79,544.65 L3845.66,534.51 L3845.53,524.37 L3844.86,514.23 L3844.26,504.08 L3844.29,493.94 L3845.23,483.80 L3846.98,473.66 L3849.11,463.52 L3851.15,453.38 L3852.76,443.24 L3853.85,433.10 L3854.47,422.96 L3854.79,412.82 L3854.92,402.68 L3854.98,392.54 L3854.99,382.39 L3855.00,372.25 L3855.00,362.11 L3855.00,351.97 L3855.00,341.83 L3855.00,331.69 L3855.00,321.55 L3855.00,311.41 L3855.00,301.27 L3855.00,291.13 L3855.00,280.99 L3855.00,270.85 L3855.00,260.70 L3855.00,250.56 L3855.00,240.42 L3855.00,230.28 L3855.00,220.14 L3855.00,210.00 L3855.00,210.00 L3855.00,220.14 L3855.00,230.28 L3855.00,240.42 L3855.00,250.56 L3855.00,260.70 L3855.00,270.85 L3855.00,280.99 L3855.00,291.13 L3855.00,301.27 L3855.00,311.41 L3855.00,321.55 L3855.00,331.69 L3855.00,341.83 L3855.00,351.97 L3855.00,362.11 L3855.00,372.25 L3855.01,382.39 L3855.02,392.54 L3855.08,402.68 L3855.21,412.82 L3855.53,422.96 L3856.15,433.10 L3857.24,443.24 L3858.85,453.38 L3860.89,463.52 L3863.02,473.66 L3864.77,483.80 L3865.71,493.94 L3865.74,504.08 L3865.14,514.23 L3864.47,524.37 L3864.34,534.51 L3865.21,544.65 L3867.35,554.79 L3870.80,564.93 L3875.44,575.07 L3880.88,585.21 L3886.32,595.35 L3890.58,605.49 L3892.40,615.63 L3890.94,625.77 L3886.28,635.92 L3879.50,646.06 L3872.19,656.20 L3865.76,666.34 L3861.00,676.48 L3857.98,686.62 L3856.31,696.76 L3855.51,706.90 L3855.18,717.04 L3855.06,727.18 L3855.02,737.32 L3855.00,747.46 L3855.00,757.61 L3855.00,767.75 L3855.00,777.89 L3855.00,788.03 L3855.00,798.17 L3855.00,808.31 L3855.00,818.45 L3855.00,828.59 L3855.00,838.73 L3855.00,848.87 L3855.00,859.01 L3855.00,869.15 L3855.00,879.30 L3855.00,889.44 L3855.00,899.58 L3855.00,909.72 L3855.00,919.86 L3855.00,930.00 Z" fill="url(#low-sample-0)" fill-opacity="0.70" stroke="#c4b5fd" stroke-width="2.4" data-effective-n="2.610"><title>13:00 Allied P1 + P5 minus Enemy P3 + P4; contributors 5; effective N 2.61</title></path><line class="whisker" x1="3855.00" x2="3855.00" y1="622.94" y2="493.93" stroke-width="0.8"/><line class="whisker" x1="3831.81" x2="3878.19" y1="622.94" y2="622.94" stroke-width="0.8"/><line class="whisker" x1="3831.81" x2="3878.19" y1="493.93" y2="493.93" stroke-width="0.8"/><line x1="3855.00" x2="3855.00" y1="622.94" y2="498.39" stroke="#c4b5fd" stroke-width="2.3"/><line x1="3855.00" x2="3855.00" y1="622.94" y2="570.18" stroke="#c4b5fd" stroke-width="5" stroke-linecap="round"/><line x1="3831.81" x2="3878.19" y1="602.95" y2="602.95" stroke="#f8fafc" stroke-width="2.2"/><path d="M4025.00,930.00 L4025.00,919.86 L4025.00,909.72 L4025.00,899.58 L4025.00,889.44 L4025.00,879.30 L4025.00,869.15 L4025.00,859.01 L4025.00,848.87 L4025.00,838.73 L4025.00,828.59 L4025.00,818.45 L4025.00,808.31 L4025.00,798.17 L4025.00,788.03 L4025.00,777.89 L4025.00,767.75 L4025.00,757.61 L4025.00,747.46 L4025.00,737.32 L4025.00,727.18 L4025.00,717.04 L4025.00,706.90 L4025.00,696.76 L4024.99,686.62 L4024.96,676.48 L4024.85,666.34 L4024.54,656.20 L4023.74,646.06 L4021.99,635.92 L4018.71,625.77 L4013.49,615.63 L4006.52,605.49 L3998.85,595.35 L3992.19,585.21 L3988.19,575.07 L3987.60,564.93 L3989.86,554.79 L3993.37,544.65 L3996.18,534.51 L3996.87,524.37 L3995.34,514.23 L3992.99,504.08 L3992.04,493.94 L3994.17,483.80 L3999.48,473.66 L4006.52,463.52 L4013.36,453.38 L4018.64,443.24 L4021.98,433.10 L4023.76,422.96 L4024.56,412.82 L4024.86,402.68 L4024.96,392.54 L4024.99,382.39 L4025.00,372.25 L4025.00,362.11 L4025.00,351.97 L4025.00,341.83 L4025.00,331.69 L4025.00,321.55 L4025.00,311.41 L4025.00,301.27 L4025.00,291.13 L4025.00,280.99 L4025.00,270.85 L4025.00,260.70 L4025.00,250.56 L4025.00,240.42 L4025.00,230.28 L4025.00,220.14 L4025.00,210.00 L4025.00,210.00 L4025.00,220.14 L4025.00,230.28 L4025.00,240.42 L4025.00,250.56 L4025.00,260.70 L4025.00,270.85 L4025.00,280.99 L4025.00,291.13 L4025.00,301.27 L4025.00,311.41 L4025.00,321.55 L4025.00,331.69 L4025.00,341.83 L4025.00,351.97 L4025.00,362.11 L4025.00,372.25 L4025.01,382.39 L4025.04,392.54 L4025.14,402.68 L4025.44,412.82 L4026.24,422.96 L4028.02,433.10 L4031.36,443.24 L4036.64,453.38 L4043.48,463.52 L4050.52,473.66 L4055.83,483.80 L4057.96,493.94 L4057.01,504.08 L4054.66,514.23 L4053.13,524.37 L4053.82,534.51 L4056.63,544.65 L4060.14,554.79 L4062.40,564.93 L4061.81,575.07 L4057.81,585.21 L4051.15,595.35 L4043.48,605.49 L4036.51,615.63 L4031.29,625.77 L4028.01,635.92 L4026.26,646.06 L4025.46,656.20 L4025.15,666.34 L4025.04,676.48 L4025.01,686.62 L4025.00,696.76 L4025.00,706.90 L4025.00,717.04 L4025.00,727.18 L4025.00,737.32 L4025.00,747.46 L4025.00,757.61 L4025.00,767.75 L4025.00,777.89 L4025.00,788.03 L4025.00,798.17 L4025.00,808.31 L4025.00,818.45 L4025.00,828.59 L4025.00,838.73 L4025.00,848.87 L4025.00,859.01 L4025.00,869.15 L4025.00,879.30 L4025.00,889.44 L4025.00,899.58 L4025.00,909.72 L4025.00,919.86 L4025.00,930.00 Z" fill="#c4b5fd" fill-opacity="0.18" stroke="#c4b5fd" stroke-width="1.1" data-effective-n="5.044"><title>13:30 Allied P1 + P5 minus Enemy P3 + P4; contributors 6; effective N 5.04</title></path><line class="whisker" x1="4025.00" x2="4025.00" y1="589.45" y2="482.19" stroke-width="0.8"/><line class="whisker" x1="4001.81" x2="4048.19" y1="589.45" y2="589.45" stroke-width="0.8"/><line class="whisker" x1="4001.81" x2="4048.19" y1="482.19" y2="482.19" stroke-width="0.8"/><line x1="4025.00" x2="4025.00" y1="584.96" y2="484.55" stroke="#c4b5fd" stroke-width="2.3"/><line x1="4025.00" x2="4025.00" y1="574.15" y2="493.04" stroke="#c4b5fd" stroke-width="5" stroke-linecap="round"/><line x1="4001.81" x2="4048.19" y1="543.82" y2="543.82" stroke="#f8fafc" stroke-width="2.2"/><path class="low-sample" d="M4195.00,930.00 L4195.00,919.86 L4195.00,909.72 L4195.00,899.58 L4195.00,889.44 L4195.00,879.30 L4195.00,869.15 L4195.00,859.01 L4195.00,848.87 L4195.00,838.73 L4195.00,828.59 L4195.00,818.45 L4195.00,808.31 L4195.00,798.17 L4195.00,788.03 L4195.00,777.89 L4195.00,767.75 L4195.00,757.61 L4195.00,747.46 L4195.00,737.32 L4195.00,727.18 L4194.99,717.04 L4194.98,706.90 L4194.95,696.76 L4194.89,686.62 L4194.74,676.48 L4194.47,666.34 L4193.97,656.20 L4193.16,646.06 L4191.96,635.92 L4190.35,625.77 L4188.41,615.63 L4186.33,605.49 L4184.38,595.35 L4182.79,585.21 L4181.67,575.07 L4180.84,564.93 L4179.92,554.79 L4178.35,544.65 L4175.69,534.51 L4171.83,524.37 L4167.15,514.23 L4162.51,504.08 L4159.00,493.94 L4157.60,483.80 L4158.82,473.66 L4162.52,463.52 L4167.98,453.38 L4174.19,443.24 L4180.15,433.10 L4185.17,422.96 L4188.92,412.82 L4191.43,402.68 L4192.93,392.54 L4193.71,382.39 L4194.05,372.25 L4194.16,362.11 L4194.19,351.97 L4194.22,341.83 L4194.29,331.69 L4194.39,321.55 L4194.51,311.41 L4194.64,301.27 L4194.75,291.13 L4194.84,280.99 L4194.91,270.85 L4194.95,260.70 L4194.98,250.56 L4194.99,240.42 L4195.00,230.28 L4195.00,220.14 L4195.00,210.00 L4195.00,210.00 L4195.00,220.14 L4195.00,230.28 L4195.01,240.42 L4195.02,250.56 L4195.05,260.70 L4195.09,270.85 L4195.16,280.99 L4195.25,291.13 L4195.36,301.27 L4195.49,311.41 L4195.61,321.55 L4195.71,331.69 L4195.78,341.83 L4195.81,351.97 L4195.84,362.11 L4195.95,372.25 L4196.29,382.39 L4197.07,392.54 L4198.57,402.68 L4201.08,412.82 L4204.83,422.96 L4209.85,433.10 L4215.81,443.24 L4222.02,453.38 L4227.48,463.52 L4231.18,473.66 L4232.40,483.80 L4231.00,493.94 L4227.49,504.08 L4222.85,514.23 L4218.17,524.37 L4214.31,534.51 L4211.65,544.65 L4210.08,554.79 L4209.16,564.93 L4208.33,575.07 L4207.21,585.21 L4205.62,595.35 L4203.67,605.49 L4201.59,615.63 L4199.65,625.77 L4198.04,635.92 L4196.84,646.06 L4196.03,656.20 L4195.53,666.34 L4195.26,676.48 L4195.11,686.62 L4195.05,696.76 L4195.02,706.90 L4195.01,717.04 L4195.00,727.18 L4195.00,737.32 L4195.00,747.46 L4195.00,757.61 L4195.00,767.75 L4195.00,777.89 L4195.00,788.03 L4195.00,798.17 L4195.00,808.31 L4195.00,818.45 L4195.00,828.59 L4195.00,838.73 L4195.00,848.87 L4195.00,859.01 L4195.00,869.15 L4195.00,879.30 L4195.00,889.44 L4195.00,899.58 L4195.00,909.72 L4195.00,919.86 L4195.00,930.00 Z" fill="url(#low-sample-0)" fill-opacity="0.70" stroke="#c4b5fd" stroke-width="2.4" data-effective-n="1.634"><title>14:00 Allied P1 + P5 minus Enemy P3 + P4; contributors 3; effective N 1.63</title></path><line class="whisker" x1="4195.00" x2="4195.00" y1="575.87" y2="345.46" stroke-width="0.8"/><line class="whisker" x1="4171.81" x2="4218.19" y1="575.87" y2="575.87" stroke-width="0.8"/><line class="whisker" x1="4171.81" x2="4218.19" y1="345.46" y2="345.46" stroke-width="0.8"/><line x1="4195.00" x2="4195.00" y1="575.87" y2="378.71" stroke="#c4b5fd" stroke-width="2.3"/><line x1="4195.00" x2="4195.00" y1="551.18" y2="432.72" stroke="#c4b5fd" stroke-width="5" stroke-linecap="round"/><line x1="4171.81" x2="4218.19" y1="503.61" y2="503.61" stroke="#f8fafc" stroke-width="2.2"/><path class="low-sample" d="M4365.00,930.00 L4365.00,919.86 L4365.00,909.72 L4365.00,899.58 L4365.00,889.44 L4365.00,879.30 L4365.00,869.15 L4365.00,859.01 L4365.00,848.87 L4365.00,838.73 L4365.00,828.59 L4365.00,818.45 L4365.00,808.31 L4365.00,798.17 L4365.00,788.03 L4365.00,777.89 L4365.00,767.75 L4365.00,757.61 L4365.00,747.46 L4365.00,737.32 L4365.00,727.18 L4365.00,717.04 L4365.00,706.90 L4365.00,696.76 L4365.00,686.62 L4365.00,676.48 L4365.00,666.34 L4365.00,656.20 L4365.00,646.06 L4365.00,635.92 L4365.00,625.77 L4365.00,615.63 L4365.00,605.49 L4365.00,595.35 L4365.00,585.21 L4365.00,575.07 L4365.00,564.93 L4365.00,554.79 L4365.00,544.65 L4365.00,534.51 L4365.00,524.37 L4365.00,514.23 L4365.00,504.08 L4365.00,493.94 L4365.00,483.80 L4365.00,473.66 L4365.00,463.52 L4365.00,453.38 L4365.00,443.24 L4365.00,433.10 L4365.00,422.96 L4365.00,412.82 L4365.00,402.68 L4364.99,392.54 L4364.72,382.39 L4362.19,372.25 L4351.53,362.11 L4333.68,351.97 L4327.60,341.83 L4332.45,331.69 L4327.94,321.55 L4328.94,311.41 L4346.24,301.27 L4360.24,291.13 L4364.42,280.99 L4364.97,270.85 L4365.00,260.70 L4365.00,250.56 L4365.00,240.42 L4365.00,230.28 L4365.00,220.14 L4365.00,210.00 L4365.00,210.00 L4365.00,220.14 L4365.00,230.28 L4365.00,240.42 L4365.00,250.56 L4365.00,260.70 L4365.03,270.85 L4365.58,280.99 L4369.76,291.13 L4383.76,301.27 L4401.06,311.41 L4402.06,321.55 L4397.55,331.69 L4402.40,341.83 L4396.32,351.97 L4378.47,362.11 L4367.81,372.25 L4365.28,382.39 L4365.01,392.54 L4365.00,402.68 L4365.00,412.82 L4365.00,422.96 L4365.00,433.10 L4365.00,443.24 L4365.00,453.38 L4365.00,463.52 L4365.00,473.66 L4365.00,483.80 L4365.00,493.94 L4365.00,504.08 L4365.00,514.23 L4365.00,524.37 L4365.00,534.51 L4365.00,544.65 L4365.00,554.79 L4365.00,564.93 L4365.00,575.07 L4365.00,585.21 L4365.00,595.35 L4365.00,605.49 L4365.00,615.63 L4365.00,625.77 L4365.00,635.92 L4365.00,646.06 L4365.00,656.20 L4365.00,666.34 L4365.00,676.48 L4365.00,686.62 L4365.00,696.76 L4365.00,706.90 L4365.00,717.04 L4365.00,727.18 L4365.00,737.32 L4365.00,747.46 L4365.00,757.61 L4365.00,767.75 L4365.00,777.89 L4365.00,788.03 L4365.00,798.17 L4365.00,808.31 L4365.00,818.45 L4365.00,828.59 L4365.00,838.73 L4365.00,848.87 L4365.00,859.01 L4365.00,869.15 L4365.00,879.30 L4365.00,889.44 L4365.00,899.58 L4365.00,909.72 L4365.00,919.86 L4365.00,930.00 Z" fill="url(#low-sample-0)" fill-opacity="0.70" stroke="#c4b5fd" stroke-width="2.4" data-effective-n="1.999"><title>14:30 Allied P1 + P5 minus Enemy P3 + P4; contributors 2; effective N 2.00</title></path><line class="whisker" x1="4365.00" x2="4365.00" y1="345.46" y2="315.20" stroke-width="0.8"/><line class="whisker" x1="4341.81" x2="4388.19" y1="345.46" y2="345.46" stroke-width="0.8"/><line class="whisker" x1="4341.81" x2="4388.19" y1="315.20" y2="315.20" stroke-width="0.8"/><line x1="4365.00" x2="4365.00" y1="345.46" y2="315.20" stroke="#c4b5fd" stroke-width="2.3"/><line x1="4365.00" x2="4365.00" y1="345.20" y2="315.20" stroke="#c4b5fd" stroke-width="5" stroke-linecap="round"/><line x1="4341.81" x2="4388.19" y1="330.07" y2="330.07" stroke="#f8fafc" stroke-width="2.2"/><path class="low-sample" d="M4535.00,930.00 L4535.00,919.86 L4535.00,909.72 L4535.00,899.58 L4535.00,889.44 L4535.00,879.30 L4535.00,869.15 L4535.00,859.01 L4535.00,848.87 L4535.00,838.73 L4535.00,828.59 L4535.00,818.45 L4535.00,808.31 L4535.00,798.17 L4535.00,788.03 L4535.00,777.89 L4535.00,767.75 L4535.00,757.61 L4535.00,747.46 L4535.00,737.32 L4535.00,727.18 L4535.00,717.04 L4535.00,706.90 L4535.00,696.76 L4535.00,686.62 L4535.00,676.48 L4535.00,666.34 L4535.00,656.20 L4535.00,646.06 L4535.00,635.92 L4535.00,625.77 L4534.99,615.63 L4534.98,605.49 L4534.94,595.35 L4534.88,585.21 L4534.75,575.07 L4534.52,564.93 L4534.11,554.79 L4533.41,544.65 L4532.32,534.51 L4530.69,524.37 L4528.38,514.23 L4525.30,504.08 L4521.47,493.94 L4517.00,483.80 L4512.17,473.66 L4507.38,463.52 L4503.11,453.38 L4499.85,443.24 L4497.96,433.10 L4497.60,422.96 L4498.70,412.82 L4500.95,402.68 L4503.86,392.54 L4506.90,382.39 L4509.59,372.25 L4511.63,362.11 L4512.89,351.97 L4513.49,341.83 L4513.68,331.69 L4513.77,321.55 L4514.08,311.41 L4514.82,301.27 L4516.10,291.13 L4517.91,280.99 L4520.10,270.85 L4522.52,260.70 L4524.95,250.56 L4527.22,240.42 L4529.22,230.28 L4530.88,220.14 L4532.18,210.00 L4537.82,210.00 L4539.12,220.14 L4540.78,230.28 L4542.78,240.42 L4545.05,250.56 L4547.48,260.70 L4549.90,270.85 L4552.09,280.99 L4553.90,291.13 L4555.18,301.27 L4555.92,311.41 L4556.23,321.55 L4556.32,331.69 L4556.51,341.83 L4557.11,351.97 L4558.37,362.11 L4560.41,372.25 L4563.10,382.39 L4566.14,392.54 L4569.05,402.68 L4571.30,412.82 L4572.40,422.96 L4572.04,433.10 L4570.15,443.24 L4566.89,453.38 L4562.62,463.52 L4557.83,473.66 L4553.00,483.80 L4548.53,493.94 L4544.70,504.08 L4541.62,514.23 L4539.31,524.37 L4537.68,534.51 L4536.59,544.65 L4535.89,554.79 L4535.48,564.93 L4535.25,575.07 L4535.12,585.21 L4535.06,595.35 L4535.02,605.49 L4535.01,615.63 L4535.00,625.77 L4535.00,635.92 L4535.00,646.06 L4535.00,656.20 L4535.00,666.34 L4535.00,676.48 L4535.00,686.62 L4535.00,696.76 L4535.00,706.90 L4535.00,717.04 L4535.00,727.18 L4535.00,737.32 L4535.00,747.46 L4535.00,757.61 L4535.00,767.75 L4535.00,777.89 L4535.00,788.03 L4535.00,798.17 L4535.00,808.31 L4535.00,818.45 L4535.00,828.59 L4535.00,838.73 L4535.00,848.87 L4535.00,859.01 L4535.00,869.15 L4535.00,879.30 L4535.00,889.44 L4535.00,899.58 L4535.00,909.72 L4535.00,919.86 L4535.00,930.00 Z" fill="url(#low-sample-0)" fill-opacity="0.70" stroke="#c4b5fd" stroke-width="2.4" data-effective-n="2.037"><title>15:00 Allied P1 + P5 minus Enemy P3 + P4; contributors 3; effective N 2.04</title></path><line class="whisker" x1="4535.00" x2="4535.00" y1="428.56" y2="279.86" stroke-width="0.8"/><line class="whisker" x1="4511.81" x2="4558.19" y1="428.56" y2="428.56" stroke-width="0.8"/><line class="whisker" x1="4511.81" x2="4558.19" y1="279.86" y2="279.86" stroke-width="0.8"/><line x1="4535.00" x2="4535.00" y1="428.56" y2="290.68" stroke="#c4b5fd" stroke-width="2.3"/><line x1="4535.00" x2="4535.00" y1="428.56" y2="321.49" stroke="#c4b5fd" stroke-width="5" stroke-linecap="round"/><line x1="4511.81" x2="4558.19" y1="383.77" y2="383.77" stroke="#f8fafc" stroke-width="2.2"/><path d="M4693.85,930.00 L4692.64,919.86 L4691.40,909.72 L4690.12,899.58 L4688.83,889.44 L4687.54,879.30 L4686.26,869.15 L4685.01,859.01 L4683.81,848.87 L4682.68,838.73 L4681.62,828.59 L4680.66,818.45 L4679.80,808.31 L4679.06,798.17 L4678.43,788.03 L4677.93,777.89 L4677.55,767.75 L4677.28,757.61 L4677.13,747.46 L4677.08,737.32 L4677.12,727.18 L4677.22,717.04 L4677.38,706.90 L4677.57,696.76 L4677.77,686.62 L4677.96,676.48 L4678.12,666.34 L4678.24,656.20 L4678.29,646.06 L4678.26,635.92 L4678.14,625.77 L4677.93,615.63 L4677.62,605.49 L4677.20,595.35 L4676.70,585.21 L4676.10,575.07 L4675.43,564.93 L4674.69,554.79 L4673.91,544.65 L4673.10,534.51 L4672.28,524.37 L4671.47,514.23 L4670.69,504.08 L4669.97,493.94 L4669.31,483.80 L4668.75,473.66 L4668.28,463.52 L4667.93,453.38 L4667.70,443.24 L4667.60,433.10 L4667.64,422.96 L4667.81,412.82 L4668.12,402.68 L4668.56,392.54 L4669.12,382.39 L4669.81,372.25 L4670.61,362.11 L4671.51,351.97 L4672.50,341.83 L4673.57,331.69 L4674.72,321.55 L4675.92,311.41 L4677.17,301.27 L4678.47,291.13 L4679.79,280.99 L4681.12,270.85 L4682.47,260.70 L4683.82,250.56 L4685.17,240.42 L4686.49,230.28 L4687.80,220.14 L4689.08,210.00 L4720.92,210.00 L4722.20,220.14 L4723.51,230.28 L4724.83,240.42 L4726.18,250.56 L4727.53,260.70 L4728.88,270.85 L4730.21,280.99 L4731.53,291.13 L4732.83,301.27 L4734.08,311.41 L4735.28,321.55 L4736.43,331.69 L4737.50,341.83 L4738.49,351.97 L4739.39,362.11 L4740.19,372.25 L4740.88,382.39 L4741.44,392.54 L4741.88,402.68 L4742.19,412.82 L4742.36,422.96 L4742.40,433.10 L4742.30,443.24 L4742.07,453.38 L4741.72,463.52 L4741.25,473.66 L4740.69,483.80 L4740.03,493.94 L4739.31,504.08 L4738.53,514.23 L4737.72,524.37 L4736.90,534.51 L4736.09,544.65 L4735.31,554.79 L4734.57,564.93 L4733.90,575.07 L4733.30,585.21 L4732.80,595.35 L4732.38,605.49 L4732.07,615.63 L4731.86,625.77 L4731.74,635.92 L4731.71,646.06 L4731.76,656.20 L4731.88,666.34 L4732.04,676.48 L4732.23,686.62 L4732.43,696.76 L4732.62,706.90 L4732.78,717.04 L4732.88,727.18 L4732.92,737.32 L4732.87,747.46 L4732.72,757.61 L4732.45,767.75 L4732.07,777.89 L4731.57,788.03 L4730.94,798.17 L4730.20,808.31 L4729.34,818.45 L4728.38,828.59 L4727.32,838.73 L4726.19,848.87 L4724.99,859.01 L4723.74,869.15 L4722.46,879.30 L4721.17,889.44 L4719.88,899.58 L4718.60,909.72 L4717.36,919.86 L4716.15,930.00 Z" fill="#c4b5fd" fill-opacity="0.18" stroke="#c4b5fd" stroke-width="1.1" data-effective-n="4.353"><title>15:30 Allied P1 + P5 minus Enemy P3 + P4; contributors 5; effective N 4.35</title></path><line class="whisker" x1="4705.00" x2="4705.00" y1="769.79" y2="279.86" stroke-width="0.8"/><line class="whisker" x1="4681.81" x2="4728.19" y1="769.79" y2="769.79" stroke-width="0.8"/><line class="whisker" x1="4681.81" x2="4728.19" y1="279.86" y2="279.86" stroke-width="0.8"/><line x1="4705.00" x2="4705.00" y1="769.79" y2="287.02" stroke="#c4b5fd" stroke-width="2.3"/><line x1="4705.00" x2="4705.00" y1="764.22" y2="385.72" stroke="#c4b5fd" stroke-width="5" stroke-linecap="round"/><line x1="4681.81" x2="4728.19" y1="482.42" y2="482.42" stroke="#f8fafc" stroke-width="2.2"/><path d="M4872.51,930.00 L4871.72,919.86 L4870.75,909.72 L4869.59,899.58 L4868.22,889.44 L4866.64,879.30 L4864.86,869.15 L4862.89,859.01 L4860.76,848.87 L4858.51,838.73 L4856.18,828.59 L4853.84,818.45 L4851.54,808.31 L4849.34,798.17 L4847.28,788.03 L4845.41,777.89 L4843.76,767.75 L4842.34,757.61 L4841.16,747.46 L4840.19,737.32 L4839.43,727.18 L4838.84,717.04 L4838.40,706.90 L4838.07,696.76 L4837.84,686.62 L4837.69,676.48 L4837.61,666.34 L4837.60,656.20 L4837.67,646.06 L4837.81,635.92 L4838.04,625.77 L4838.36,615.63 L4838.76,605.49 L4839.25,595.35 L4839.80,585.21 L4840.42,575.07 L4841.11,564.93 L4841.84,554.79 L4842.64,544.65 L4843.51,534.51 L4844.45,524.37 L4845.49,514.23 L4846.63,504.08 L4847.90,493.94 L4849.29,483.80 L4850.80,473.66 L4852.44,463.52 L4854.18,453.38 L4855.99,443.24 L4857.84,433.10 L4859.69,422.96 L4861.52,412.82 L4863.28,402.68 L4864.95,392.54 L4866.49,382.39 L4867.89,372.25 L4869.14,362.11 L4870.23,351.97 L4871.18,341.83 L4871.97,331.69 L4872.63,321.55 L4873.18,311.41 L4873.61,301.27 L4873.96,291.13 L4874.23,280.99 L4874.43,270.85 L4874.59,260.70 L4874.71,250.56 L4874.79,240.42 L4874.86,230.28 L4874.90,220.14 L4874.93,210.00 L4875.07,210.00 L4875.10,220.14 L4875.14,230.28 L4875.21,240.42 L4875.29,250.56 L4875.41,260.70 L4875.57,270.85 L4875.77,280.99 L4876.04,291.13 L4876.39,301.27 L4876.82,311.41 L4877.37,321.55 L4878.03,331.69 L4878.82,341.83 L4879.77,351.97 L4880.86,362.11 L4882.11,372.25 L4883.51,382.39 L4885.05,392.54 L4886.72,402.68 L4888.48,412.82 L4890.31,422.96 L4892.16,433.10 L4894.01,443.24 L4895.82,453.38 L4897.56,463.52 L4899.20,473.66 L4900.71,483.80 L4902.10,493.94 L4903.37,504.08 L4904.51,514.23 L4905.55,524.37 L4906.49,534.51 L4907.36,544.65 L4908.16,554.79 L4908.89,564.93 L4909.58,575.07 L4910.20,585.21 L4910.75,595.35 L4911.24,605.49 L4911.64,615.63 L4911.96,625.77 L4912.19,635.92 L4912.33,646.06 L4912.40,656.20 L4912.39,666.34 L4912.31,676.48 L4912.16,686.62 L4911.93,696.76 L4911.60,706.90 L4911.16,717.04 L4910.57,727.18 L4909.81,737.32 L4908.84,747.46 L4907.66,757.61 L4906.24,767.75 L4904.59,777.89 L4902.72,788.03 L4900.66,798.17 L4898.46,808.31 L4896.16,818.45 L4893.82,828.59 L4891.49,838.73 L4889.24,848.87 L4887.11,859.01 L4885.14,869.15 L4883.36,879.30 L4881.78,889.44 L4880.41,899.58 L4879.25,909.72 L4878.28,919.86 L4877.49,930.00 Z" fill="#c4b5fd" fill-opacity="0.18" stroke="#c4b5fd" stroke-width="1.1" data-effective-n="3.069"><title>16:00 Allied P1 + P5 minus Enemy P3 + P4; contributors 5; effective N 3.07</title></path><line class="whisker" x1="4875.00" x2="4875.00" y1="769.79" y2="416.47" stroke-width="0.8"/><line class="whisker" x1="4851.81" x2="4898.19" y1="769.79" y2="769.79" stroke-width="0.8"/><line class="whisker" x1="4851.81" x2="4898.19" y1="416.47" y2="416.47" stroke-width="0.8"/><line x1="4875.00" x2="4875.00" y1="764.38" y2="465.65" stroke="#c4b5fd" stroke-width="2.3"/><line x1="4875.00" x2="4875.00" y1="733.18" y2="535.27" stroke="#c4b5fd" stroke-width="5" stroke-linecap="round"/><line x1="4851.81" x2="4898.19" y1="638.86" y2="638.86" stroke="#f8fafc" stroke-width="2.2"/><path d="M5038.06,930.00 L5036.98,919.86 L5035.79,909.72 L5034.52,899.58 L5033.17,889.44 L5031.74,879.30 L5030.26,869.15 L5028.74,859.01 L5027.19,848.87 L5025.64,838.73 L5024.10,828.59 L5022.60,818.45 L5021.16,808.31 L5019.79,798.17 L5018.52,788.03 L5017.35,777.89 L5016.30,767.75 L5015.38,757.61 L5014.60,747.46 L5013.95,737.32 L5013.43,727.18 L5013.05,717.04 L5012.79,706.90 L5012.64,696.76 L5012.58,686.62 L5012.61,676.48 L5012.69,666.34 L5012.83,656.20 L5012.98,646.06 L5013.13,635.92 L5013.27,625.77 L5013.37,615.63 L5013.42,605.49 L5013.40,595.35 L5013.30,585.21 L5013.11,575.07 L5012.83,564.93 L5012.46,554.79 L5012.01,544.65 L5011.50,534.51 L5010.92,524.37 L5010.32,514.23 L5009.71,504.08 L5009.12,493.94 L5008.59,483.80 L5008.14,473.66 L5007.81,463.52 L5007.62,453.38 L5007.60,443.24 L5007.77,433.10 L5008.16,422.96 L5008.76,412.82 L5009.58,402.68 L5010.62,392.54 L5011.86,382.39 L5013.29,372.25 L5014.89,362.11 L5016.63,351.97 L5018.48,341.83 L5020.40,331.69 L5022.37,321.55 L5024.35,311.41 L5026.32,301.27 L5028.24,291.13 L5030.08,280.99 L5031.84,270.85 L5033.49,260.70 L5035.02,250.56 L5036.41,240.42 L5037.68,230.28 L5038.81,220.14 L5039.82,210.00 L5050.18,210.00 L5051.19,220.14 L5052.32,230.28 L5053.59,240.42 L5054.98,250.56 L5056.51,260.70 L5058.16,270.85 L5059.92,280.99 L5061.76,291.13 L5063.68,301.27 L5065.65,311.41 L5067.63,321.55 L5069.60,331.69 L5071.52,341.83 L5073.37,351.97 L5075.11,362.11 L5076.71,372.25 L5078.14,382.39 L5079.38,392.54 L5080.42,402.68 L5081.24,412.82 L5081.84,422.96 L5082.23,433.10 L5082.40,443.24 L5082.38,453.38 L5082.19,463.52 L5081.86,473.66 L5081.41,483.80 L5080.88,493.94 L5080.29,504.08 L5079.68,514.23 L5079.08,524.37 L5078.50,534.51 L5077.99,544.65 L5077.54,554.79 L5077.17,564.93 L5076.89,575.07 L5076.70,585.21 L5076.60,595.35 L5076.58,605.49 L5076.63,615.63 L5076.73,625.77 L5076.87,635.92 L5077.02,646.06 L5077.17,656.20 L5077.31,666.34 L5077.39,676.48 L5077.42,686.62 L5077.36,696.76 L5077.21,706.90 L5076.95,717.04 L5076.57,727.18 L5076.05,737.32 L5075.40,747.46 L5074.62,757.61 L5073.70,767.75 L5072.65,777.89 L5071.48,788.03 L5070.21,798.17 L5068.84,808.31 L5067.40,818.45 L5065.90,828.59 L5064.36,838.73 L5062.81,848.87 L5061.26,859.01 L5059.74,869.15 L5058.26,879.30 L5056.83,889.44 L5055.48,899.58 L5054.21,909.72 L5053.02,919.86 L5051.94,930.00 Z" fill="#c4b5fd" fill-opacity="0.18" stroke="#c4b5fd" stroke-width="1.1" data-effective-n="3.046"><title>16:30 Allied P1 + P5 minus Enemy P3 + P4; contributors 4; effective N 3.05</title></path><line class="whisker" x1="5045.00" x2="5045.00" y1="763.69" y2="416.47" stroke-width="0.8"/><line class="whisker" x1="5021.81" x2="5068.19" y1="763.69" y2="763.69" stroke-width="0.8"/><line class="whisker" x1="5021.81" x2="5068.19" y1="416.47" y2="416.47" stroke-width="0.8"/><line x1="5045.00" x2="5045.00" y1="763.69" y2="416.47" stroke="#c4b5fd" stroke-width="2.3"/><line x1="5045.00" x2="5045.00" y1="711.14" y2="425.31" stroke="#c4b5fd" stroke-width="5" stroke-linecap="round"/><line x1="5021.81" x2="5068.19" y1="528.59" y2="528.59" stroke="#f8fafc" stroke-width="2.2"/><path class="low-sample" d="M5210.56,930.00 L5209.84,919.86 L5209.07,909.72 L5208.24,899.58 L5207.37,889.44 L5206.46,879.30 L5205.54,869.15 L5204.61,859.01 L5203.69,848.87 L5202.80,838.73 L5201.95,828.59 L5201.17,818.45 L5200.46,808.31 L5199.84,798.17 L5199.32,788.03 L5198.90,777.89 L5198.58,767.75 L5198.36,757.61 L5198.23,747.46 L5198.16,737.32 L5198.15,727.18 L5198.17,717.04 L5198.19,706.90 L5198.17,696.76 L5198.10,686.62 L5197.95,676.48 L5197.68,666.34 L5197.27,656.20 L5196.70,646.06 L5195.96,635.92 L5195.05,625.77 L5193.96,615.63 L5192.72,605.49 L5191.33,595.35 L5189.82,585.21 L5188.23,575.07 L5186.60,564.93 L5184.97,554.79 L5183.40,544.65 L5181.93,534.51 L5180.60,524.37 L5179.47,514.23 L5178.58,504.08 L5177.95,493.94 L5177.62,483.80 L5177.60,473.66 L5177.90,463.52 L5178.52,453.38 L5179.44,443.24 L5180.64,433.10 L5182.10,422.96 L5183.78,412.82 L5185.63,402.68 L5187.63,392.54 L5189.72,382.39 L5191.86,372.25 L5194.01,362.11 L5196.14,351.97 L5198.20,341.83 L5200.17,331.69 L5202.02,321.55 L5203.75,311.41 L5205.33,301.27 L5206.77,291.13 L5208.06,280.99 L5209.19,270.85 L5210.19,260.70 L5211.05,250.56 L5211.78,240.42 L5212.40,230.28 L5212.92,220.14 L5213.35,210.00 L5216.65,210.00 L5217.08,220.14 L5217.60,230.28 L5218.22,240.42 L5218.95,250.56 L5219.81,260.70 L5220.81,270.85 L5221.94,280.99 L5223.23,291.13 L5224.67,301.27 L5226.25,311.41 L5227.98,321.55 L5229.83,331.69 L5231.80,341.83 L5233.86,351.97 L5235.99,362.11 L5238.14,372.25 L5240.28,382.39 L5242.37,392.54 L5244.37,402.68 L5246.22,412.82 L5247.90,422.96 L5249.36,433.10 L5250.56,443.24 L5251.48,453.38 L5252.10,463.52 L5252.40,473.66 L5252.38,483.80 L5252.05,493.94 L5251.42,504.08 L5250.53,514.23 L5249.40,524.37 L5248.07,534.51 L5246.60,544.65 L5245.03,554.79 L5243.40,564.93 L5241.77,575.07 L5240.18,585.21 L5238.67,595.35 L5237.28,605.49 L5236.04,615.63 L5234.95,625.77 L5234.04,635.92 L5233.30,646.06 L5232.73,656.20 L5232.32,666.34 L5232.05,676.48 L5231.90,686.62 L5231.83,696.76 L5231.81,706.90 L5231.83,717.04 L5231.85,727.18 L5231.84,737.32 L5231.77,747.46 L5231.64,757.61 L5231.42,767.75 L5231.10,777.89 L5230.68,788.03 L5230.16,798.17 L5229.54,808.31 L5228.83,818.45 L5228.05,828.59 L5227.20,838.73 L5226.31,848.87 L5225.39,859.01 L5224.46,869.15 L5223.54,879.30 L5222.63,889.44 L5221.76,899.58 L5220.93,909.72 L5220.16,919.86 L5219.44,930.00 Z" fill="url(#low-sample-0)" fill-opacity="0.70" stroke="#c4b5fd" stroke-width="2.4" data-effective-n="1.901"><title>17:00 Allied P1 + P5 minus Enemy P3 + P4; contributors 3; effective N 1.90</title></path><line class="whisker" x1="5215.00" x2="5215.00" y1="763.69" y2="417.62" stroke-width="0.8"/><line class="whisker" x1="5191.81" x2="5238.19" y1="763.69" y2="763.69" stroke-width="0.8"/><line class="whisker" x1="5191.81" x2="5238.19" y1="417.62" y2="417.62" stroke-width="0.8"/><line x1="5215.00" x2="5215.00" y1="763.69" y2="431.08" stroke="#c4b5fd" stroke-width="2.3"/><line x1="5215.00" x2="5215.00" y1="702.49" y2="456.93" stroke="#c4b5fd" stroke-width="5" stroke-linecap="round"/><line x1="5191.81" x2="5238.19" y1="553.30" y2="553.30" stroke="#f8fafc" stroke-width="2.2"/><path class="low-sample" d="M5385.00,930.00 L5385.00,919.86 L5385.00,909.72 L5385.00,899.58 L5385.00,889.44 L5385.00,879.30 L5385.00,869.15 L5385.00,859.01 L5385.00,848.87 L5385.00,838.73 L5385.00,828.59 L5385.00,818.45 L5385.00,808.31 L5385.00,798.17 L5385.00,788.03 L5385.00,777.89 L5385.00,767.75 L5385.00,757.61 L5385.00,747.46 L5385.00,737.32 L5385.00,727.18 L5385.00,717.04 L5385.00,706.90 L5385.00,696.76 L5385.00,686.62 L5385.00,676.48 L5385.00,666.34 L5385.00,656.20 L5385.00,646.06 L5385.00,635.92 L5385.00,625.77 L5385.00,615.63 L5385.00,605.49 L5385.00,595.35 L5385.00,585.21 L5385.00,575.07 L5385.00,564.93 L5384.98,554.79 L5384.90,544.65 L5384.58,534.51 L5383.63,524.37 L5381.42,514.23 L5377.46,504.08 L5372.23,493.94 L5367.47,483.80 L5365.04,473.66 L5364.81,463.52 L5364.09,453.38 L5360.05,443.24 L5353.12,433.10 L5347.60,422.96 L5348.13,412.82 L5355.42,402.68 L5365.88,392.54 L5375.07,382.39 L5380.86,372.25 L5383.62,362.11 L5384.63,351.97 L5384.92,341.83 L5384.99,331.69 L5385.00,321.55 L5385.00,311.41 L5385.00,301.27 L5385.00,291.13 L5385.00,280.99 L5385.00,270.85 L5385.00,260.70 L5385.00,250.56 L5385.00,240.42 L5385.00,230.28 L5385.00,220.14 L5385.00,210.00 L5385.00,210.00 L5385.00,220.14 L5385.00,230.28 L5385.00,240.42 L5385.00,250.56 L5385.00,260.70 L5385.00,270.85 L5385.00,280.99 L5385.00,291.13 L5385.00,301.27 L5385.00,311.41 L5385.00,321.55 L5385.01,331.69 L5385.08,341.83 L5385.37,351.97 L5386.38,362.11 L5389.14,372.25 L5394.93,382.39 L5404.12,392.54 L5414.58,402.68 L5421.87,412.82 L5422.40,422.96 L5416.88,433.10 L5409.95,443.24 L5405.91,453.38 L5405.19,463.52 L5404.96,473.66 L5402.53,483.80 L5397.77,493.94 L5392.54,504.08 L5388.58,514.23 L5386.37,524.37 L5385.42,534.51 L5385.10,544.65 L5385.02,554.79 L5385.00,564.93 L5385.00,575.07 L5385.00,585.21 L5385.00,595.35 L5385.00,605.49 L5385.00,615.63 L5385.00,625.77 L5385.00,635.92 L5385.00,646.06 L5385.00,656.20 L5385.00,666.34 L5385.00,676.48 L5385.00,686.62 L5385.00,696.76 L5385.00,706.90 L5385.00,717.04 L5385.00,727.18 L5385.00,737.32 L5385.00,747.46 L5385.00,757.61 L5385.00,767.75 L5385.00,777.89 L5385.00,788.03 L5385.00,798.17 L5385.00,808.31 L5385.00,818.45 L5385.00,828.59 L5385.00,838.73 L5385.00,848.87 L5385.00,859.01 L5385.00,869.15 L5385.00,879.30 L5385.00,889.44 L5385.00,899.58 L5385.00,909.72 L5385.00,919.86 L5385.00,930.00 Z" fill="url(#low-sample-0)" fill-opacity="0.70" stroke="#c4b5fd" stroke-width="2.4" data-effective-n="1.799"><title>17:30 Allied P1 + P5 minus Enemy P3 + P4; contributors 2; effective N 1.80</title></path><line class="whisker" x1="5385.00" x2="5385.00" y1="474.94" y2="417.62" stroke-width="0.8"/><line class="whisker" x1="5361.81" x2="5408.19" y1="474.94" y2="474.94" stroke-width="0.8"/><line class="whisker" x1="5361.81" x2="5408.19" y1="417.62" y2="417.62" stroke-width="0.8"/><line x1="5385.00" x2="5385.00" y1="474.94" y2="417.62" stroke="#c4b5fd" stroke-width="2.3"/><line x1="5385.00" x2="5385.00" y1="465.35" y2="417.62" stroke="#c4b5fd" stroke-width="5" stroke-linecap="round"/><line x1="5361.81" x2="5408.19" y1="436.69" y2="436.69" stroke="#f8fafc" stroke-width="2.2"/><line class="whisker" x1="5555.00" x2="5555.00" y1="474.94" y2="474.94" stroke-width="0.8"/><line class="whisker" x1="5531.81" x2="5578.19" y1="474.94" y2="474.94" stroke-width="0.8"/><line class="whisker" x1="5531.81" x2="5578.19" y1="474.94" y2="474.94" stroke-width="0.8"/><line x1="5555.00" x2="5555.00" y1="474.94" y2="474.94" stroke="#c4b5fd" stroke-width="2.3"/><line x1="5555.00" x2="5555.00" y1="474.94" y2="474.94" stroke="#c4b5fd" stroke-width="5" stroke-linecap="round"/><line x1="5531.81" x2="5578.19" y1="474.94" y2="474.94" stroke="#f8fafc" stroke-width="2.2"/><line class="axis" x1="200" x2="5640" y1="930" y2="930"/><line class="axis" x1="200" x2="200" y1="210" y2="930"/><text x="2920.00" y="1145" font-size="42" text-anchor="middle">Match start time bucket (Europe/London)</text><text x="55" y="570.00" font-size="42" text-anchor="middle" transform="rotate(-90 55 570.00)">Net worth (gold)</text><rect x="4840" y="150" width="42" height="42" rx="6" fill="#c4b5fd" fill-opacity="0.7"/><text x="4900" y="184" font-size="36">Allied P1 + P5 minus Enemy P3 + P4</text></svg>